# Blender 5.1.0
# www.blender.org
mtllib the_breakers_yard_11.mtl
o lenkrad_2
v 0.679878 0.341244 0.065902
v 0.725955 0.218536 0.065902
v 0.679878 0.341244 -0.065172
v 0.725955 0.218536 -0.065172
v 0.719292 0.530539 0.474566
v 0.740231 0.474776 0.474566
v 0.719292 0.530539 -0.473836
v 0.740231 0.474776 -0.473836
v 0.962936 -0.118316 0.038320
v 0.962936 -0.118316 -0.037590
v 0.658909 0.333370 0.065902
v 0.704986 0.210662 0.065902
v 0.658909 0.333370 -0.065172
v 0.704986 0.210662 -0.065172
v 0.698323 0.522665 0.474566
v 0.719262 0.466902 0.474566
v 0.698322 0.522665 -0.473836
v 0.719262 0.466902 -0.473836
v 0.941967 -0.126189 0.038320
v 0.941967 -0.126189 -0.037590
v 0.758632 0.356246 0.270234
v 0.725124 0.445481 0.270234
v 0.737663 0.348372 0.270234
v 0.704155 0.437608 0.270234
v 0.725124 0.445481 -0.269504
v 0.758632 0.356246 -0.269504
v 0.704155 0.437608 -0.269504
v 0.737663 0.348372 -0.269504
v 0.869985 0.059700 -0.051381
v 0.869985 0.059700 0.052111
v 0.849016 0.051826 -0.051381
v 0.849016 0.051826 0.052111
v 0.719640 0.525462 0.462369
v 0.698671 0.517588 0.462369
v 0.741329 0.467700 0.462369
v 0.720360 0.459827 0.462369
v 0.741542 0.466327 -0.459272
v 0.720573 0.458454 -0.459272
v 0.719707 0.524477 -0.459272
v 0.698738 0.516603 -0.459272
v 0.956517 -0.106021 0.039273
v 0.935548 -0.113895 0.039273
v 0.956517 -0.106021 -0.038543
v 0.935548 -0.113895 -0.038543
v 0.739678 0.203402 -0.063858
v 0.718709 0.195528 -0.063858
v 0.739678 0.203402 0.064588
v 0.718709 0.195528 0.064588
v 0.730231 0.236554 0.092638
v 0.709262 0.228680 0.092638
v 0.685798 0.354883 0.092638
v 0.664829 0.347009 0.092638
v 0.685024 0.353098 -0.088409
v 0.664055 0.345224 -0.088409
v 0.729671 0.234196 -0.088409
v 0.708702 0.226322 -0.088409
v 0.720941 0.216653 0.065902
v 0.957922 -0.120198 0.038320
v 0.957922 -0.120198 -0.037590
v 0.720941 0.216653 -0.065172
v 0.674864 0.339361 0.065902
v 0.714278 0.528656 0.474566
v 0.735217 0.472893 0.474566
v 0.735216 0.472893 -0.473836
v 0.714277 0.528656 -0.473836
v 0.674864 0.339361 -0.065172
v 0.720110 0.443599 0.270234
v 0.753618 0.354363 0.270234
v 0.753618 0.354363 -0.269504
v 0.720110 0.443599 -0.269504
v 0.864971 0.057817 0.052111
v 0.864970 0.057817 -0.051381
v 0.714626 0.523579 0.462369
v 0.736315 0.465818 0.462369
v 0.736528 0.464445 -0.459272
v 0.714693 0.522594 -0.459272
v 0.951502 -0.107904 0.039273
v 0.951502 -0.107904 -0.038543
v 0.734664 0.201519 -0.063858
v 0.734664 0.201519 0.064588
v 0.725216 0.234671 0.092638
v 0.680784 0.353000 0.092638
v 0.680009 0.351215 -0.088409
v 0.724657 0.232313 -0.088409
v 0.947285 -0.124192 0.038320
v 0.710304 0.212659 -0.065172
v 0.703641 0.524662 0.474566
v 0.724580 0.468899 -0.473836
v 0.664227 0.335367 -0.065172
v 0.709473 0.439605 0.270234
v 0.742981 0.350369 0.270234
v 0.742981 0.350369 -0.269504
v 0.709473 0.439605 -0.269504
v 0.854334 0.053823 0.052111
v 0.854334 0.053823 -0.051381
v 0.703989 0.519585 0.462369
v 0.725679 0.461824 0.462369
v 0.725891 0.460451 -0.459272
v 0.704056 0.518600 -0.459272
v 0.940866 -0.111898 0.039273
v 0.940866 -0.111898 -0.038543
v 0.724028 0.197525 -0.063858
v 0.724028 0.197525 0.064588
v 0.714580 0.230677 0.092638
v 0.670148 0.349006 0.092638
v 0.669373 0.347221 -0.088409
v 0.714020 0.228319 -0.088409
v 0.710304 0.212659 0.065902
v 0.947285 -0.124192 -0.037590
v 0.664227 0.335367 0.065902
v 0.724580 0.468899 0.474566
v 0.703641 0.524662 -0.473836
v 0.968041 -0.210345 0.000365
v 0.989173 -0.195226 0.000365
v 0.999914 -0.171568 0.000365
v 0.997387 -0.145708 0.000365
v 0.982269 -0.124576 0.000365
v 0.958610 -0.113835 0.000365
v 0.932751 -0.116362 0.000365
v 0.911619 -0.131480 0.000365
v 0.900877 -0.155139 0.000365
v 0.903404 -0.180999 0.000365
v 0.918523 -0.202130 0.000365
v 0.942181 -0.212872 0.000365
v 0.966381 -0.205923 -0.071705
v 0.987532 -0.190858 -0.070827
v 0.998329 -0.167347 -0.068429
v 0.995878 -0.141688 -0.065153
v 0.980835 -0.120757 -0.061877
v 0.957231 -0.110163 -0.059479
v 0.931392 -0.112744 -0.058601
v 0.910240 -0.127808 -0.059479
v 0.899443 -0.151320 -0.061877
v 0.901895 -0.176978 -0.065153
v 0.916938 -0.197909 -0.068429
v 0.940541 -0.208503 -0.070827
v 0.961427 -0.192732 -0.142541
v 0.982640 -0.177828 -0.140800
v 0.993601 -0.154755 -0.136045
v 0.991375 -0.129696 -0.129549
v 0.976557 -0.109365 -0.123054
v 0.953119 -0.099210 -0.118299
v 0.927339 -0.101951 -0.116558
v 0.906127 -0.116855 -0.118299
v 0.895166 -0.139928 -0.123054
v 0.897392 -0.164987 -0.129549
v 0.912210 -0.185318 -0.136045
v 0.935648 -0.195473 -0.140800
v 0.953266 -0.170998 -0.210932
v 0.974578 -0.156359 -0.208359
v 0.985811 -0.134009 -0.201328
v 0.983956 -0.109938 -0.191723
v 0.969509 -0.090595 -0.182119
v 0.946342 -0.081163 -0.175088
v 0.920662 -0.084169 -0.172514
v 0.899350 -0.098808 -0.175088
v 0.888117 -0.121157 -0.182119
v 0.889973 -0.145229 -0.191723
v 0.904419 -0.164572 -0.201328
v 0.927586 -0.174004 -0.208359
v 0.942037 -0.141093 -0.275708
v 0.963485 -0.126818 -0.272346
v 0.975092 -0.105463 -0.263159
v 0.973747 -0.082752 -0.250610
v 0.959811 -0.064768 -0.238062
v 0.937017 -0.056331 -0.228875
v 0.911474 -0.059701 -0.225513
v 0.890026 -0.073976 -0.228875
v 0.878419 -0.095330 -0.238062
v 0.879764 -0.118042 -0.250610
v 0.893700 -0.136026 -0.263159
v 0.916494 -0.144463 -0.272345
v 0.927931 -0.103528 -0.335760
v 0.949552 -0.089711 -0.331666
v 0.961628 -0.069606 -0.320482
v 0.960924 -0.048602 -0.305203
v 0.947629 -0.032326 -0.289925
v 0.925305 -0.025139 -0.278740
v 0.899934 -0.028967 -0.274646
v 0.878313 -0.042784 -0.278740
v 0.866237 -0.062888 -0.289925
v 0.866941 -0.083893 -0.305203
v 0.880236 -0.100169 -0.320481
v 0.902560 -0.107356 -0.331666
v 0.911191 -0.058947 -0.390061
v 0.933015 -0.045672 -0.385306
v 0.945648 -0.027052 -0.372314
v 0.945705 -0.008074 -0.354568
v 0.933171 0.006176 -0.336821
v 0.911404 0.011880 -0.323830
v 0.886237 0.007509 -0.319074
v 0.864413 -0.005765 -0.323830
v 0.851780 -0.024386 -0.336821
v 0.851723 -0.043364 -0.354568
v 0.864257 -0.057614 -0.372314
v 0.886024 -0.063318 -0.385306
v 0.892102 -0.008112 -0.437681
v 0.914159 0.004544 -0.432346
v 0.927427 0.021473 -0.417770
v 0.928352 0.038140 -0.397859
v 0.916686 0.050079 -0.377948
v 0.895554 0.054092 -0.363372
v 0.870619 0.049102 -0.358037
v 0.848562 0.036446 -0.363372
v 0.835294 0.019517 -0.377948
v 0.834369 0.002850 -0.397859
v 0.846036 -0.009089 -0.417770
v 0.867168 -0.013102 -0.432346
v 0.870992 0.048108 -0.477807
v 0.893306 0.060078 -0.471983
v 0.907277 0.075137 -0.456072
v 0.909161 0.089249 -0.434337
v 0.898454 0.098633 -0.412602
v 0.878025 0.100774 -0.396691
v 0.853347 0.095099 -0.390867
v 0.831033 0.083129 -0.396691
v 0.817062 0.068070 -0.412602
v 0.815178 0.053958 -0.434337
v 0.825885 0.044574 -0.456072
v 0.846314 0.042433 -0.471983
v 0.848221 0.108749 -0.509751
v 0.870812 0.119981 -0.503538
v 0.885541 0.133022 -0.486564
v 0.888460 0.144377 -0.463377
v 0.878788 0.151005 -0.440190
v 0.859117 0.151128 -0.423216
v 0.834716 0.144715 -0.417003
v 0.812125 0.133483 -0.423215
v 0.797397 0.120442 -0.440190
v 0.794477 0.109087 -0.463377
v 0.804149 0.102459 -0.486564
v 0.823821 0.102336 -0.503538
v 0.824179 0.172776 -0.532967
v 0.847063 0.183228 -0.526471
v 0.862592 0.194138 -0.508724
v 0.866604 0.202583 -0.484482
v 0.858025 0.206300 -0.460240
v 0.839153 0.204293 -0.442493
v 0.815046 0.197100 -0.435997
v 0.792162 0.186648 -0.442493
v 0.776633 0.175738 -0.460240
v 0.772621 0.167293 -0.484482
v 0.781200 0.163575 -0.508724
v 0.800072 0.165582 -0.526471
v 0.799278 0.239091 -0.547057
v 0.822465 0.248735 -0.540390
v 0.838822 0.257439 -0.522174
v 0.843966 0.262870 -0.497291
v 0.836519 0.263572 -0.472408
v 0.818476 0.259359 -0.454193
v 0.794672 0.251358 -0.447526
v 0.771485 0.241714 -0.454193
v 0.755128 0.233010 -0.472408
v 0.749984 0.227579 -0.497291
v 0.757431 0.226876 -0.522174
v 0.775474 0.231090 -0.540389
v 0.773943 0.306560 -0.551781
v 0.797439 0.315383 -0.545056
v 0.814639 0.321842 -0.526683
v 0.820935 0.324206 -0.501585
v 0.814639 0.321842 -0.476488
v 0.797439 0.315383 -0.458115
v 0.773943 0.306560 -0.451390
v 0.750448 0.297738 -0.458115
v 0.733248 0.291279 -0.476488
v 0.726952 0.288915 -0.501585
v 0.733248 0.291279 -0.526683
v 0.750448 0.297738 -0.545056
v 0.748608 0.374030 -0.547057
v 0.772413 0.382031 -0.540389
v 0.790456 0.386245 -0.522174
v 0.797903 0.385542 -0.497291
v 0.792759 0.380111 -0.472408
v 0.776402 0.371407 -0.454193
v 0.753215 0.361763 -0.447526
v 0.729411 0.353762 -0.454193
v 0.711367 0.349549 -0.472408
v 0.703920 0.350251 -0.497291
v 0.709064 0.355682 -0.522174
v 0.725421 0.364386 -0.540389
v 0.723707 0.440345 -0.532967
v 0.747815 0.447538 -0.526471
v 0.766686 0.449545 -0.508724
v 0.775265 0.445828 -0.484482
v 0.771253 0.437383 -0.460240
v 0.755725 0.426473 -0.442493
v 0.732841 0.416021 -0.435997
v 0.708733 0.408827 -0.442493
v 0.689862 0.406821 -0.460240
v 0.681283 0.410538 -0.484482
v 0.685295 0.418983 -0.508724
v 0.700823 0.429893 -0.526471
v 0.699665 0.504371 -0.509751
v 0.724066 0.510785 -0.503538
v 0.743737 0.510661 -0.486564
v 0.753409 0.504034 -0.463377
v 0.750490 0.492678 -0.440190
v 0.735762 0.479638 -0.423215
v 0.713170 0.468406 -0.417003
v 0.688770 0.461992 -0.423215
v 0.669098 0.462116 -0.440190
v 0.659427 0.468743 -0.463377
v 0.662346 0.480099 -0.486564
v 0.677074 0.493140 -0.503538
v 0.676895 0.565013 -0.477807
v 0.701572 0.570688 -0.471983
v 0.722002 0.568546 -0.456072
v 0.732709 0.559162 -0.434337
v 0.730824 0.545051 -0.412602
v 0.716853 0.529992 -0.396691
v 0.694540 0.518022 -0.390867
v 0.669862 0.512347 -0.396691
v 0.649433 0.514488 -0.412602
v 0.638726 0.523872 -0.434337
v 0.640610 0.537984 -0.456072
v 0.654581 0.553042 -0.471983
v 0.655784 0.621232 -0.437681
v 0.680719 0.626222 -0.432346
v 0.701851 0.622210 -0.417770
v 0.713517 0.610271 -0.397859
v 0.712593 0.593604 -0.377948
v 0.699324 0.576674 -0.363372
v 0.677268 0.564019 -0.358037
v 0.652333 0.559029 -0.363372
v 0.631201 0.563041 -0.377948
v 0.619535 0.574980 -0.397859
v 0.620459 0.591648 -0.417770
v 0.633728 0.608577 -0.432346
v 0.636696 0.672068 -0.390061
v 0.661863 0.676438 -0.385305
v 0.683630 0.670735 -0.372314
v 0.696164 0.656485 -0.354567
v 0.696107 0.637507 -0.336821
v 0.683474 0.618886 -0.323829
v 0.661650 0.605612 -0.319074
v 0.636482 0.601241 -0.323829
v 0.614716 0.606944 -0.336821
v 0.602181 0.621194 -0.354567
v 0.602238 0.640172 -0.372314
v 0.614872 0.658793 -0.385305
v 0.619955 0.716649 -0.335760
v 0.645327 0.720477 -0.331666
v 0.667651 0.713290 -0.320481
v 0.680946 0.697013 -0.305203
v 0.681650 0.676009 -0.289925
v 0.669573 0.655905 -0.278740
v 0.647953 0.642087 -0.274646
v 0.622582 0.638259 -0.278740
v 0.600258 0.645446 -0.289925
v 0.586963 0.661723 -0.305203
v 0.586259 0.682727 -0.320481
v 0.598335 0.702831 -0.331666
v 0.605850 0.754213 -0.275708
v 0.631393 0.757584 -0.272345
v 0.654186 0.749147 -0.263159
v 0.668123 0.731163 -0.250610
v 0.669468 0.708451 -0.238062
v 0.657861 0.687097 -0.228875
v 0.636412 0.672822 -0.225513
v 0.610869 0.669451 -0.228875
v 0.588076 0.677889 -0.238061
v 0.574140 0.695872 -0.250610
v 0.572795 0.718584 -0.263159
v 0.584402 0.739938 -0.272345
v 0.594621 0.784118 -0.210932
v 0.620300 0.787125 -0.208358
v 0.643467 0.777692 -0.201327
v 0.657914 0.758349 -0.191723
v 0.659770 0.734278 -0.182119
v 0.648536 0.711929 -0.175088
v 0.627225 0.697290 -0.172514
v 0.601545 0.694283 -0.175088
v 0.578378 0.703716 -0.182119
v 0.563931 0.723059 -0.191723
v 0.562076 0.747130 -0.201327
v 0.573309 0.769479 -0.208358
v 0.586460 0.805852 -0.142541
v 0.612239 0.808594 -0.140800
v 0.635677 0.798438 -0.136045
v 0.650495 0.778107 -0.129549
v 0.652721 0.753048 -0.123053
v 0.641760 0.729976 -0.118298
v 0.620548 0.715072 -0.116558
v 0.594768 0.712330 -0.118298
v 0.571330 0.722486 -0.123053
v 0.556512 0.742817 -0.129549
v 0.554286 0.767876 -0.136045
v 0.565247 0.790949 -0.140800
v 0.581506 0.819043 -0.071704
v 0.607346 0.821624 -0.070827
v 0.630949 0.811030 -0.068429
v 0.645992 0.790099 -0.065153
v 0.648444 0.764440 -0.061877
v 0.637647 0.740929 -0.059479
v 0.616495 0.725865 -0.058601
v 0.590656 0.723284 -0.059479
v 0.567052 0.733878 -0.061877
v 0.552009 0.754809 -0.065153
v 0.549558 0.780467 -0.068429
v 0.560355 0.803979 -0.070827
v 0.579846 0.823465 0.000365
v 0.605706 0.825992 0.000365
v 0.629364 0.815251 0.000365
v 0.644483 0.794119 0.000365
v 0.647010 0.768260 0.000365
v 0.636268 0.744601 0.000365
v 0.615136 0.729483 0.000365
v 0.589277 0.726956 0.000365
v 0.565618 0.737697 0.000365
v 0.550500 0.758829 0.000365
v 0.547973 0.784689 0.000365
v 0.558714 0.808347 0.000365
v 0.581507 0.819043 0.072435
v 0.607346 0.821624 0.071557
v 0.630949 0.811030 0.069159
v 0.645992 0.790099 0.065883
v 0.648444 0.764440 0.062607
v 0.637647 0.740929 0.060209
v 0.616495 0.725865 0.059331
v 0.590656 0.723284 0.060209
v 0.567052 0.733878 0.062607
v 0.552009 0.754809 0.065883
v 0.549558 0.780467 0.069159
v 0.560355 0.803979 0.071557
v 0.586460 0.805852 0.143271
v 0.612239 0.808594 0.141530
v 0.635677 0.798438 0.136775
v 0.650495 0.778107 0.130279
v 0.652721 0.753048 0.123784
v 0.641760 0.729976 0.119028
v 0.620548 0.715072 0.117288
v 0.594769 0.712330 0.119028
v 0.571330 0.722486 0.123784
v 0.556512 0.742817 0.130279
v 0.554286 0.767876 0.136775
v 0.565247 0.790949 0.141530
v 0.594621 0.784118 0.211662
v 0.620301 0.787125 0.209088
v 0.643468 0.777692 0.202057
v 0.657914 0.758349 0.192453
v 0.659770 0.734278 0.182849
v 0.648537 0.711929 0.175818
v 0.627225 0.697290 0.173244
v 0.601545 0.694283 0.175818
v 0.578378 0.703716 0.182849
v 0.563932 0.723059 0.192453
v 0.562076 0.747130 0.202057
v 0.573309 0.769479 0.209088
v 0.605850 0.754213 0.276438
v 0.631393 0.757584 0.273075
v 0.654187 0.749147 0.263889
v 0.668123 0.731163 0.251340
v 0.669468 0.708451 0.238791
v 0.657861 0.687097 0.229605
v 0.636413 0.672822 0.226243
v 0.610870 0.669451 0.229605
v 0.588076 0.677889 0.238791
v 0.574140 0.695872 0.251340
v 0.572795 0.718584 0.263889
v 0.584402 0.739938 0.273075
v 0.619956 0.716649 0.336490
v 0.645327 0.720477 0.332396
v 0.667651 0.713289 0.321212
v 0.680946 0.697013 0.305933
v 0.681650 0.676009 0.290655
v 0.669574 0.655904 0.279470
v 0.647954 0.642087 0.275376
v 0.622582 0.638259 0.279470
v 0.600258 0.645446 0.290655
v 0.586963 0.661723 0.305933
v 0.586259 0.682727 0.321212
v 0.598336 0.702831 0.332396
v 0.636696 0.672068 0.390791
v 0.661863 0.676438 0.386036
v 0.683630 0.670735 0.373044
v 0.696164 0.656485 0.355298
v 0.696107 0.637507 0.337551
v 0.683474 0.618886 0.324559
v 0.661650 0.605612 0.319804
v 0.636483 0.601241 0.324560
v 0.614716 0.606944 0.337551
v 0.602182 0.621194 0.355298
v 0.602239 0.640172 0.373044
v 0.614872 0.658793 0.386036
v 0.655785 0.621232 0.438411
v 0.680719 0.626222 0.433076
v 0.701851 0.622210 0.418500
v 0.713518 0.610271 0.398589
v 0.712593 0.593604 0.378678
v 0.699325 0.576674 0.364102
v 0.677268 0.564019 0.358767
v 0.652333 0.559029 0.364102
v 0.631201 0.563041 0.378678
v 0.619535 0.574981 0.398589
v 0.620460 0.591648 0.418500
v 0.633728 0.608577 0.433076
v 0.676895 0.565013 0.478537
v 0.701573 0.570688 0.472713
v 0.722002 0.568546 0.456802
v 0.732709 0.559162 0.435067
v 0.730825 0.545051 0.413332
v 0.716854 0.529992 0.397421
v 0.694540 0.518021 0.391597
v 0.669863 0.512347 0.397421
v 0.649433 0.514488 0.413332
v 0.638726 0.523872 0.435067
v 0.640611 0.537984 0.456802
v 0.654581 0.553042 0.472713
v 0.699666 0.504371 0.510481
v 0.724066 0.510785 0.504268
v 0.743738 0.510661 0.487294
v 0.753410 0.504034 0.464107
v 0.750490 0.492678 0.440920
v 0.735762 0.479638 0.423945
v 0.713171 0.468406 0.417733
v 0.688771 0.461992 0.423946
v 0.669099 0.462116 0.440920
v 0.659427 0.468743 0.464107
v 0.662346 0.480099 0.487294
v 0.677075 0.493140 0.504268
v 0.723708 0.440345 0.533697
v 0.747815 0.447539 0.527201
v 0.766687 0.449545 0.509454
v 0.775266 0.445828 0.485212
v 0.771254 0.437383 0.460970
v 0.755725 0.426473 0.443223
v 0.732841 0.416021 0.436727
v 0.708734 0.408828 0.443223
v 0.689862 0.406821 0.460970
v 0.681283 0.410538 0.485212
v 0.685295 0.418983 0.509454
v 0.700824 0.429893 0.527201
v 0.748609 0.374030 0.547787
v 0.772413 0.382031 0.541119
v 0.790456 0.386245 0.522904
v 0.797903 0.385542 0.498021
v 0.792759 0.380111 0.473138
v 0.776402 0.371407 0.454923
v 0.753215 0.361763 0.448255
v 0.729411 0.353762 0.454923
v 0.711368 0.349549 0.473138
v 0.703921 0.350251 0.498021
v 0.709065 0.355682 0.522904
v 0.725422 0.364386 0.541119
v 0.773944 0.306560 0.552511
v 0.797439 0.315383 0.545786
v 0.814640 0.321842 0.527413
v 0.820935 0.324206 0.502315
v 0.814639 0.321842 0.477218
v 0.797439 0.315383 0.458845
v 0.773944 0.306560 0.452120
v 0.750448 0.297738 0.458845
v 0.733248 0.291279 0.477218
v 0.726952 0.288915 0.502315
v 0.733248 0.291279 0.527413
v 0.750448 0.297738 0.545786
v 0.799279 0.239091 0.547787
v 0.822466 0.248735 0.541120
v 0.838823 0.257439 0.522904
v 0.843967 0.262870 0.498021
v 0.836519 0.263572 0.473138
v 0.818476 0.259359 0.454923
v 0.794672 0.251358 0.448256
v 0.771485 0.241714 0.454923
v 0.755128 0.233010 0.473138
v 0.749984 0.227579 0.498021
v 0.757431 0.226876 0.522904
v 0.775474 0.231090 0.541120
v 0.824180 0.172776 0.533697
v 0.847064 0.183228 0.527201
v 0.862592 0.194138 0.509454
v 0.866604 0.202583 0.485212
v 0.858025 0.206300 0.460970
v 0.839153 0.204293 0.443223
v 0.815046 0.197100 0.436727
v 0.792162 0.186648 0.443223
v 0.776634 0.175738 0.460970
v 0.772622 0.167293 0.485212
v 0.781201 0.163576 0.509454
v 0.800072 0.165582 0.527201
v 0.848222 0.108749 0.510481
v 0.870813 0.119981 0.504268
v 0.885541 0.133022 0.487294
v 0.888461 0.144377 0.464107
v 0.878789 0.151005 0.440920
v 0.859117 0.151128 0.423945
v 0.834717 0.144715 0.417732
v 0.812126 0.133483 0.423945
v 0.797397 0.120442 0.440920
v 0.794478 0.109087 0.464107
v 0.804150 0.102459 0.487294
v 0.823821 0.102336 0.504268
v 0.870993 0.048108 0.478537
v 0.893306 0.060078 0.472713
v 0.907277 0.075137 0.456802
v 0.909161 0.089249 0.435067
v 0.898454 0.098633 0.413332
v 0.878025 0.100774 0.397420
v 0.853347 0.095099 0.391597
v 0.831034 0.083129 0.397420
v 0.817063 0.068070 0.413332
v 0.815179 0.053958 0.435067
v 0.825885 0.044574 0.456802
v 0.846315 0.042433 0.472713
v 0.892103 -0.008111 0.438412
v 0.914159 0.004544 0.433076
v 0.927428 0.021473 0.418500
v 0.928352 0.038140 0.398589
v 0.916686 0.050080 0.378678
v 0.895554 0.054092 0.364102
v 0.870619 0.049102 0.358767
v 0.848563 0.036446 0.364102
v 0.835294 0.019517 0.378678
v 0.834370 0.002850 0.398589
v 0.846036 -0.009089 0.418500
v 0.867168 -0.013102 0.433076
v 0.911191 -0.058947 0.390791
v 0.933015 -0.045672 0.386036
v 0.945649 -0.027051 0.373044
v 0.945706 -0.008073 0.355298
v 0.933171 0.006176 0.337551
v 0.911404 0.011880 0.324560
v 0.886237 0.007509 0.319804
v 0.864413 -0.005765 0.324560
v 0.851780 -0.024386 0.337551
v 0.851723 -0.043364 0.355298
v 0.864257 -0.057614 0.373044
v 0.886024 -0.063318 0.386036
v 0.927932 -0.103528 0.336490
v 0.949552 -0.089711 0.332396
v 0.961628 -0.069607 0.321211
v 0.960924 -0.048602 0.305933
v 0.947629 -0.032326 0.290655
v 0.925305 -0.025139 0.279470
v 0.899934 -0.028967 0.275376
v 0.878314 -0.042784 0.279470
v 0.866238 -0.062888 0.290655
v 0.866941 -0.083893 0.305933
v 0.880236 -0.100169 0.321211
v 0.902560 -0.107356 0.332396
v 0.942037 -0.141093 0.276438
v 0.963485 -0.126818 0.273075
v 0.975092 -0.105464 0.263889
v 0.973747 -0.082752 0.251340
v 0.959811 -0.064768 0.238791
v 0.937018 -0.056331 0.229605
v 0.911475 -0.059701 0.226243
v 0.890026 -0.073976 0.229605
v 0.878420 -0.095330 0.238791
v 0.879764 -0.118042 0.251340
v 0.893701 -0.136026 0.263889
v 0.916494 -0.144463 0.273075
v 0.953266 -0.170998 0.211662
v 0.974578 -0.156359 0.209088
v 0.985811 -0.134009 0.202058
v 0.983956 -0.109938 0.192453
v 0.969509 -0.090595 0.182849
v 0.946342 -0.081163 0.175818
v 0.920662 -0.084169 0.173244
v 0.899351 -0.098808 0.175818
v 0.888118 -0.121157 0.182849
v 0.889973 -0.145228 0.192453
v 0.904420 -0.164572 0.202058
v 0.927587 -0.174004 0.209089
v 0.961427 -0.192732 0.143270
v 0.982640 -0.177828 0.141530
v 0.993601 -0.154755 0.136775
v 0.991375 -0.129696 0.130279
v 0.976557 -0.109365 0.123783
v 0.953119 -0.099210 0.119028
v 0.927339 -0.101951 0.117288
v 0.906127 -0.116855 0.119028
v 0.895166 -0.139928 0.123783
v 0.897392 -0.164987 0.130279
v 0.912210 -0.185318 0.136775
v 0.935648 -0.195473 0.141530
v 0.966381 -0.205923 0.072434
v 0.987532 -0.190858 0.071557
v 0.998329 -0.167347 0.069158
v 0.995878 -0.141688 0.065883
v 0.980835 -0.120757 0.062607
v 0.957232 -0.110163 0.060209
v 0.931392 -0.112744 0.059331
v 0.910240 -0.127808 0.060209
v 0.899443 -0.151320 0.062607
v 0.901895 -0.176978 0.065883
v 0.916938 -0.197909 0.069158
v 0.940541 -0.208503 0.071557
v 0.714906 0.284392 -0.104978
v 0.757520 0.300393 -0.104978
v 0.722130 0.265152 -0.102954
v 0.764744 0.281153 -0.102954
v 0.729077 0.246652 -0.096959
v 0.771691 0.262653 -0.096959
v 0.735480 0.229602 -0.087225
v 0.778093 0.245603 -0.087225
v 0.741091 0.214657 -0.074124
v 0.783705 0.230659 -0.074124
v 0.745697 0.202393 -0.058160
v 0.788310 0.218394 -0.058161
v 0.749119 0.193279 -0.039948
v 0.791732 0.209281 -0.039948
v 0.751226 0.187667 -0.020187
v 0.793840 0.203669 -0.020187
v 0.751938 0.185772 0.000365
v 0.794551 0.201774 0.000365
v 0.751226 0.187667 0.020916
v 0.793840 0.203669 0.020916
v 0.749119 0.193279 0.040678
v 0.791732 0.209281 0.040678
v 0.745697 0.202393 0.058890
v 0.788310 0.218394 0.058890
v 0.741091 0.214657 0.074854
v 0.783705 0.230659 0.074854
v 0.735480 0.229602 0.087954
v 0.778093 0.245603 0.087954
v 0.729077 0.246652 0.097689
v 0.771691 0.262653 0.097689
v 0.722131 0.265152 0.103684
v 0.764744 0.281153 0.103684
v 0.714906 0.284392 0.105708
v 0.757520 0.300393 0.105708
v 0.707682 0.303631 0.103684
v 0.750295 0.319633 0.103684
v 0.700735 0.322132 0.097689
v 0.743348 0.338133 0.097689
v 0.694332 0.339182 0.087954
v 0.736946 0.355183 0.087954
v 0.688721 0.354126 0.074854
v 0.731335 0.370128 0.074853
v 0.684115 0.366391 0.058890
v 0.726729 0.382392 0.058890
v 0.680693 0.375504 0.040678
v 0.723307 0.391506 0.040678
v 0.678586 0.381116 0.020916
v 0.721200 0.397118 0.020916
v 0.677874 0.383011 0.000365
v 0.720488 0.399013 0.000365
v 0.678586 0.381116 -0.020187
v 0.721200 0.397118 -0.020187
v 0.680693 0.375504 -0.039948
v 0.723307 0.391506 -0.039948
v 0.684115 0.366391 -0.058161
v 0.726729 0.382392 -0.058161
v 0.688721 0.354126 -0.074124
v 0.731334 0.370127 -0.074124
v 0.694332 0.339182 -0.087225
v 0.736946 0.355183 -0.087225
v 0.700735 0.322132 -0.096959
v 0.743348 0.338133 -0.096959
v 0.707681 0.303631 -0.102954
v 0.750295 0.319633 -0.102954
v 0.757520 0.300393 -0.091389
v 0.763812 0.283635 -0.089626
v 0.769863 0.267521 -0.084405
v 0.775439 0.252671 -0.075926
v 0.780327 0.239654 -0.064515
v 0.784338 0.228972 -0.050611
v 0.787319 0.221034 -0.034748
v 0.789155 0.216146 -0.017535
v 0.789774 0.214495 0.000365
v 0.789155 0.216146 0.018265
v 0.787319 0.221034 0.035478
v 0.784338 0.228972 0.051341
v 0.780327 0.239654 0.065245
v 0.775439 0.252671 0.076656
v 0.769863 0.267521 0.085135
v 0.763812 0.283635 0.090356
v 0.757520 0.300393 0.092119
v 0.751227 0.317151 0.090356
v 0.745176 0.333265 0.085135
v 0.739600 0.348116 0.076656
v 0.734712 0.361132 0.065245
v 0.730701 0.371815 0.051341
v 0.727720 0.379753 0.035478
v 0.725885 0.384641 0.018265
v 0.725265 0.386291 0.000365
v 0.725885 0.384641 -0.017536
v 0.727720 0.379752 -0.034748
v 0.730701 0.371815 -0.050611
v 0.734712 0.361132 -0.064515
v 0.739600 0.348115 -0.075926
v 0.745176 0.333265 -0.084405
v 0.751227 0.317151 -0.089626
v 0.783986 0.310331 -0.091389
v 0.790279 0.293574 -0.089626
v 0.796330 0.277460 -0.084405
v 0.801906 0.262609 -0.075926
v 0.806794 0.249592 -0.064515
v 0.810805 0.238910 -0.050611
v 0.813786 0.230972 -0.034748
v 0.815621 0.226084 -0.017536
v 0.816241 0.224433 0.000365
v 0.815621 0.226084 0.018265
v 0.813786 0.230972 0.035478
v 0.810805 0.238910 0.051341
v 0.806794 0.249592 0.065245
v 0.801906 0.262609 0.076656
v 0.796330 0.277460 0.085135
v 0.790279 0.293574 0.090356
v 0.783987 0.310331 0.092119
v 0.777694 0.327089 0.090356
v 0.771643 0.343203 0.085135
v 0.766067 0.358054 0.076656
v 0.761179 0.371070 0.065245
v 0.757168 0.381753 0.051341
v 0.754187 0.389691 0.035478
v 0.752352 0.394579 0.018265
v 0.751732 0.396229 0.000365
v 0.752352 0.394579 -0.017536
v 0.754187 0.389691 -0.034748
v 0.757168 0.381753 -0.050611
v 0.761179 0.371070 -0.064515
v 0.766067 0.358054 -0.075926
v 0.771643 0.343203 -0.084405
v 0.777694 0.327089 -0.089626
v 0.783986 0.310331 -0.080502
v 0.789532 0.295562 -0.078949
v 0.794865 0.281360 -0.074347
v 0.799780 0.268271 -0.066874
v 0.804088 0.256799 -0.056817
v 0.807623 0.247384 -0.044563
v 0.810250 0.240388 -0.030582
v 0.811868 0.236080 -0.015412
v 0.812414 0.234625 0.000365
v 0.811868 0.236080 0.016141
v 0.810250 0.240388 0.031311
v 0.807623 0.247384 0.045292
v 0.804088 0.256799 0.057547
v 0.799780 0.268271 0.067603
v 0.794865 0.281360 0.075076
v 0.789532 0.295562 0.079678
v 0.783987 0.310331 0.081232
v 0.778441 0.325101 0.079678
v 0.773108 0.339303 0.075076
v 0.768193 0.352391 0.067603
v 0.763885 0.363864 0.057547
v 0.760350 0.373279 0.045292
v 0.757723 0.380275 0.031311
v 0.756105 0.384583 0.016141
v 0.755559 0.386037 0.000365
v 0.756105 0.384583 -0.015412
v 0.757723 0.380274 -0.030582
v 0.760350 0.373278 -0.044563
v 0.763885 0.363863 -0.056817
v 0.768193 0.352391 -0.066874
v 0.773108 0.339303 -0.074347
v 0.778441 0.325101 -0.078949
v 0.763936 0.302802 -0.080502
v 0.769482 0.288033 -0.078949
v 0.774815 0.273831 -0.074347
v 0.779729 0.260743 -0.066874
v 0.784037 0.249270 -0.056817
v 0.787573 0.239855 -0.044563
v 0.790200 0.232859 -0.030582
v 0.791817 0.228551 -0.015412
v 0.792364 0.227097 0.000365
v 0.791817 0.228551 0.016141
v 0.790200 0.232859 0.031311
v 0.787573 0.239855 0.045292
v 0.784037 0.249270 0.057547
v 0.779730 0.260743 0.067603
v 0.774815 0.273831 0.075076
v 0.769482 0.288033 0.079678
v 0.763936 0.302802 0.081232
v 0.758390 0.317572 0.079678
v 0.753057 0.331774 0.075076
v 0.748143 0.344862 0.067603
v 0.743835 0.356335 0.057547
v 0.740299 0.365750 0.045292
v 0.737672 0.372746 0.031311
v 0.736055 0.377054 0.016141
v 0.735509 0.378508 0.000365
v 0.736055 0.377054 -0.015412
v 0.737672 0.372746 -0.030582
v 0.740299 0.365750 -0.044563
v 0.743835 0.356335 -0.056817
v 0.748143 0.344862 -0.066874
v 0.753057 0.331774 -0.074347
v 0.758390 0.317572 -0.078949
v 0.763936 0.302802 -0.076544
v 0.769210 0.288756 -0.075066
v 0.774282 0.275249 -0.070689
v 0.778956 0.262802 -0.063582
v 0.783053 0.251891 -0.054018
v 0.786416 0.242937 -0.042363
v 0.788914 0.236283 -0.029067
v 0.790452 0.232186 -0.014639
v 0.790972 0.230803 0.000365
v 0.790452 0.232186 0.015369
v 0.788914 0.236283 0.029796
v 0.786416 0.242937 0.043093
v 0.783053 0.251891 0.054747
v 0.778956 0.262801 0.064312
v 0.774282 0.275249 0.071419
v 0.769211 0.288756 0.075796
v 0.763936 0.302802 0.077273
v 0.758662 0.316849 0.075796
v 0.753590 0.330356 0.071419
v 0.748916 0.342803 0.064312
v 0.744819 0.353714 0.054747
v 0.741457 0.362668 0.043093
v 0.738958 0.369322 0.029796
v 0.737420 0.373419 0.015369
v 0.736900 0.374802 0.000365
v 0.737420 0.373419 -0.014639
v 0.738958 0.369322 -0.029067
v 0.741457 0.362668 -0.042363
v 0.744819 0.353714 -0.054018
v 0.748916 0.342803 -0.063582
v 0.753590 0.330355 -0.070689
v 0.758662 0.316849 -0.075066
v 0.714906 0.284392 -0.092297
v 0.721261 0.267468 -0.090517
v 0.727371 0.251195 -0.085244
v 0.733003 0.236197 -0.076681
v 0.737939 0.223052 -0.065157
v 0.741990 0.212263 -0.051116
v 0.745000 0.204247 -0.035095
v 0.746854 0.199310 -0.017713
v 0.747480 0.197644 0.000365
v 0.746854 0.199310 0.018442
v 0.745000 0.204247 0.035825
v 0.741990 0.212263 0.051845
v 0.737939 0.223052 0.065887
v 0.733003 0.236197 0.077411
v 0.727372 0.251195 0.085974
v 0.721261 0.267468 0.091247
v 0.714906 0.284392 0.093027
v 0.708551 0.301315 0.091247
v 0.702441 0.317589 0.085974
v 0.696809 0.332586 0.077411
v 0.691873 0.345732 0.065887
v 0.687822 0.356520 0.051845
v 0.684812 0.364537 0.035825
v 0.682958 0.369473 0.018442
v 0.682332 0.371140 0.000365
v 0.682958 0.369473 -0.017713
v 0.684812 0.364536 -0.035095
v 0.687822 0.356520 -0.051116
v 0.691873 0.345732 -0.065157
v 0.696809 0.332586 -0.076681
v 0.702441 0.317589 -0.085244
v 0.708551 0.301315 -0.090517
v 0.688283 0.274395 -0.092297
v 0.694638 0.257471 -0.090517
v 0.700748 0.241198 -0.085244
v 0.706380 0.226200 -0.076681
v 0.711316 0.213055 -0.065157
v 0.715367 0.202266 -0.051115
v 0.718377 0.194250 -0.035095
v 0.720231 0.189313 -0.017713
v 0.720857 0.187647 0.000365
v 0.720231 0.189313 0.018442
v 0.718377 0.194250 0.035825
v 0.715367 0.202266 0.051845
v 0.711316 0.213055 0.065887
v 0.706380 0.226200 0.077411
v 0.700748 0.241198 0.085974
v 0.694638 0.257471 0.091247
v 0.688283 0.274395 0.093027
v 0.681928 0.291318 0.091247
v 0.675817 0.307592 0.085974
v 0.670186 0.322589 0.077411
v 0.665250 0.335735 0.065887
v 0.661199 0.346523 0.051845
v 0.658189 0.354540 0.035825
v 0.656335 0.359476 0.018442
v 0.655709 0.361143 0.000365
v 0.656335 0.359476 -0.017713
v 0.658189 0.354539 -0.035095
v 0.661199 0.346523 -0.051116
v 0.665250 0.335735 -0.065157
v 0.670186 0.322589 -0.076681
v 0.675817 0.307592 -0.085244
v 0.681928 0.291318 -0.090517
v 0.688283 0.274395 -0.120605
v 0.696579 0.252301 -0.118281
v 0.704556 0.231056 -0.111397
v 0.711908 0.211477 -0.100218
v 0.718353 0.194315 -0.085174
v 0.723641 0.180231 -0.066843
v 0.727571 0.169766 -0.045928
v 0.729991 0.163321 -0.023235
v 0.730808 0.161145 0.000365
v 0.729991 0.163321 0.023965
v 0.727571 0.169766 0.046658
v 0.723641 0.180231 0.067572
v 0.718353 0.194315 0.085904
v 0.711909 0.211477 0.100948
v 0.704557 0.231056 0.112127
v 0.696579 0.252301 0.119011
v 0.688283 0.274395 0.121335
v 0.679987 0.296489 0.119011
v 0.672009 0.317733 0.112127
v 0.664657 0.337313 0.100948
v 0.658213 0.354474 0.085904
v 0.652925 0.368558 0.067572
v 0.648995 0.379024 0.046658
v 0.646575 0.385468 0.023965
v 0.645758 0.387644 0.000365
v 0.646575 0.385468 -0.023235
v 0.648995 0.379023 -0.045929
v 0.652925 0.368558 -0.066843
v 0.658213 0.354474 -0.085174
v 0.664657 0.337313 -0.100218
v 0.672009 0.317733 -0.111397
v 0.679987 0.296488 -0.118281
v 0.688283 0.274395 -0.125615
v 0.696923 0.251386 -0.123194
v 0.705230 0.229261 -0.116025
v 0.712887 0.208871 -0.104383
v 0.719598 0.190999 -0.088716
v 0.725105 0.176332 -0.069626
v 0.729198 0.165433 -0.047845
v 0.731718 0.158722 -0.024213
v 0.732569 0.156456 0.000365
v 0.731718 0.158722 0.024942
v 0.729198 0.165433 0.048575
v 0.725105 0.176332 0.070355
v 0.719598 0.190999 0.089446
v 0.712887 0.208871 0.105113
v 0.705230 0.229261 0.116755
v 0.696923 0.251386 0.123924
v 0.688283 0.274395 0.126345
v 0.679643 0.297404 0.123924
v 0.671335 0.319528 0.116755
v 0.663679 0.339918 0.105113
v 0.656968 0.357790 0.089446
v 0.651460 0.372458 0.070355
v 0.647368 0.383356 0.048575
v 0.644848 0.390068 0.024942
v 0.643997 0.392334 0.000365
v 0.644848 0.390068 -0.024213
v 0.647368 0.383356 -0.047846
v 0.651460 0.372457 -0.069626
v 0.656968 0.357790 -0.088716
v 0.663679 0.339918 -0.104383
v 0.671335 0.319528 -0.116025
v 0.679643 0.297403 -0.123194
v 0.422934 0.174756 -0.125615
v 0.431573 0.151747 -0.123194
v 0.439881 0.129623 -0.116025
v 0.447538 0.109233 -0.104383
v 0.454249 0.091361 -0.088716
v 0.459756 0.076694 -0.069626
v 0.463849 0.065795 -0.047845
v 0.466369 0.059083 -0.024212
v 0.467220 0.056817 0.000365
v 0.466369 0.059083 0.024942
v 0.463849 0.065795 0.048575
v 0.459756 0.076693 0.070356
v 0.454249 0.091361 0.089446
v 0.447538 0.109233 0.105113
v 0.439881 0.129623 0.116755
v 0.431573 0.151747 0.123924
v 0.422934 0.174756 0.126345
v 0.414294 0.197765 0.123924
v 0.405986 0.219890 0.116755
v 0.398330 0.240280 0.105113
v 0.391619 0.258152 0.089446
v 0.386111 0.272819 0.070355
v 0.382019 0.283718 0.048575
v 0.379499 0.290429 0.024942
v 0.378648 0.292695 0.000365
v 0.379498 0.290429 -0.024212
v 0.382019 0.283718 -0.047845
v 0.386111 0.272819 -0.069626
v 0.391619 0.258152 -0.088716
v 0.398330 0.240280 -0.104383
v 0.405986 0.219889 -0.116025
v 0.414294 0.197765 -0.123194
v 0.422933 0.174756 -0.049879
v 0.426379 0.165580 -0.048914
v 0.429693 0.156756 -0.046054
v 0.432746 0.148624 -0.041411
v 0.435423 0.141496 -0.035163
v 0.437619 0.135646 -0.027549
v 0.439251 0.131300 -0.018863
v 0.440257 0.128623 -0.009437
v 0.440596 0.127719 0.000365
v 0.440257 0.128623 0.010167
v 0.439251 0.131299 0.019593
v 0.437619 0.135646 0.028279
v 0.435423 0.141496 0.035893
v 0.432746 0.148624 0.042141
v 0.429693 0.156756 0.046784
v 0.426379 0.165580 0.049644
v 0.422934 0.174756 0.050609
v 0.419488 0.183933 0.049644
v 0.416174 0.192757 0.046784
v 0.413121 0.200889 0.042141
v 0.410444 0.208017 0.035893
v 0.408248 0.213866 0.028279
v 0.406616 0.218213 0.019592
v 0.405610 0.220890 0.010167
v 0.405271 0.221793 0.000365
v 0.405610 0.220890 -0.009437
v 0.406616 0.218213 -0.018863
v 0.408248 0.213866 -0.027549
v 0.410444 0.208016 -0.035163
v 0.413121 0.200889 -0.041411
v 0.416174 0.192757 -0.046054
v 0.419488 0.183933 -0.048914
v -1.161774 -0.420301 -0.049878
v -1.158328 -0.429477 -0.048913
v -1.155015 -0.438301 -0.046054
v -1.151961 -0.446433 -0.041411
v -1.149285 -0.453561 -0.035162
v -1.147088 -0.459411 -0.027549
v -1.145456 -0.463757 -0.018862
v -1.144451 -0.466434 -0.009437
v -1.144111 -0.467338 0.000366
v -1.144451 -0.466434 0.010168
v -1.145456 -0.463757 0.019593
v -1.147088 -0.459411 0.028280
v -1.149285 -0.453561 0.035893
v -1.151961 -0.446433 0.042142
v -1.155015 -0.438301 0.046785
v -1.158328 -0.429477 0.049644
v -1.161774 -0.420301 0.050610
v -1.165220 -0.411124 0.049644
v -1.168533 -0.402300 0.046785
v -1.171587 -0.394168 0.042142
v -1.174263 -0.387040 0.035893
v -1.176460 -0.381191 0.028280
v -1.178092 -0.376844 0.019593
v -1.179097 -0.374167 0.010168
v -1.179436 -0.373263 0.000366
v -1.179097 -0.374167 -0.009437
v -1.178092 -0.376844 -0.018862
v -1.176460 -0.381191 -0.027549
v -1.174263 -0.387040 -0.035162
v -1.171586 -0.394168 -0.041411
v -1.168533 -0.402300 -0.046054
v -1.165220 -0.411124 -0.048913
vn 0.3989 0.8720 -0.2838
vn 0.8558 0.0525 0.5147
vn 0.3989 0.8720 0.2838
vn 0.8558 0.0525 -0.5147
vn 0.3150 0.8399 0.4420
vn 0.7503 -0.1450 0.6450
vn 0.3150 0.8399 -0.4420
vn 0.7503 -0.1450 -0.6450
vn 0.7767 -0.3066 0.5503
vn 0.7767 -0.3066 -0.5503
vn -0.9484 0.3123 0.0554
vn -0.6418 -0.6188 0.4530
vn -0.9484 0.3123 -0.0554
vn -0.6418 -0.6188 -0.4530
vn -0.7395 0.4663 0.4855
vn -0.3905 -0.5694 0.7234
vn -0.7395 0.4663 -0.4855
vn -0.3905 -0.5694 -0.7234
vn -0.2857 -0.7770 0.5610
vn -0.2857 -0.7770 -0.5610
vn 0.9299 -0.3364 0.1487
vn 0.4325 0.8113 -0.3934
vn -0.3598 -0.7735 0.5217
vn -0.8981 0.4196 -0.1320
vn 0.4325 0.8113 0.3934
vn 0.9299 -0.3364 -0.1487
vn -0.8981 0.4196 0.1320
vn -0.3598 -0.7735 -0.5217
vn 0.6210 0.3820 -0.6844
vn 0.6210 0.3820 0.6844
vn -0.5296 -0.4333 -0.7293
vn -0.5296 -0.4333 0.7293
vn 0.4174 0.8431 -0.3391
vn -0.9084 0.3763 -0.1826
vn 0.8998 -0.3373 0.2767
vn -0.4293 -0.7975 0.4240
vn 0.8998 -0.3373 -0.2767
vn -0.4293 -0.7975 -0.4240
vn 0.4174 0.8431 0.3391
vn -0.9084 0.3763 0.1826
vn 0.6467 0.2828 0.7084
vn -0.6071 -0.3714 0.7025
vn 0.6467 0.2828 -0.7084
vn -0.6071 -0.3714 -0.7025
vn 0.5480 0.4349 -0.7146
vn -0.5003 -0.5142 -0.6966
vn 0.5480 0.4349 0.7146
vn -0.5003 -0.5142 0.6966
vn 0.9197 -0.3777 0.1075
vn -0.3700 -0.7419 0.5592
vn 0.3631 0.7950 -0.4860
vn -0.9114 0.4114 -0.0080
vn 0.3631 0.7950 0.4860
vn -0.9114 0.4114 0.0080
vn 0.9197 -0.3777 -0.1075
vn -0.3700 -0.7419 -0.5592
vn 0.1865 -0.4966 0.8477
vn 0.2570 -0.6844 0.6823
vn 0.2570 -0.6844 -0.6823
vn 0.1865 -0.4966 -0.8477
vn -0.3452 0.9193 -0.1890
vn -0.2911 0.7752 0.5607
vn 0.1761 -0.4689 0.8655
vn 0.1761 -0.4689 -0.8655
vn -0.2911 0.7752 -0.5607
vn -0.3452 0.9193 0.1890
vn -0.3264 0.8693 -0.3712
vn 0.3048 -0.8117 0.4983
vn 0.3048 -0.8117 -0.4983
vn -0.3264 0.8693 0.3712
vn 0.0243 -0.0646 0.9976
vn 0.0243 -0.0646 -0.9976
vn 0.3515 -0.9362 -0.0000
vn 0.7691 -0.6391 -0.0000
vn 0.9850 -0.1728 -0.0000
vn 0.9399 0.3414 -0.0000
vn 0.6422 0.7665 -0.0000
vn 0.1690 0.9856 -0.0000
vn -0.3515 0.9362 -0.0000
vn -0.7760 0.6308 -0.0000
vn -0.9880 0.1544 -0.0000
vn -0.9323 -0.3616 -0.0000
vn -0.6278 -0.7784 -0.0000
vn -0.1584 -0.9874 -0.0000
vn 0.3485 -0.9282 -0.1305
vn 0.7665 -0.6321 -0.1134
vn 0.9834 -0.1687 -0.0663
vn 0.9399 0.3415 -0.0014
vn 0.6437 0.7626 0.0642
vn 0.1716 0.9787 0.1127
vn -0.3485 0.9282 0.1305
vn -0.7734 0.6238 0.1127
vn -0.9865 0.1504 0.0642
vn -0.9324 -0.3615 -0.0014
vn -0.6293 -0.7743 -0.0663
vn -0.1610 -0.9804 -0.1134
vn 0.3396 -0.9043 -0.2588
vn 0.7587 -0.6114 -0.2248
vn 0.9789 -0.1566 -0.1315
vn 0.9398 0.3418 -0.0028
vn 0.6481 0.7508 0.1273
vn 0.1794 0.9581 0.2234
vn -0.3396 0.9043 0.2588
vn -0.7656 0.6032 0.2234
vn -0.9821 0.1387 0.1273
vn -0.9325 -0.3613 -0.0028
vn -0.6339 -0.7622 -0.1315
vn -0.1688 -0.9597 -0.2248
vn 0.3248 -0.8649 -0.3827
vn 0.7459 -0.5772 -0.3324
vn 0.9714 -0.1366 -0.1944
vn 0.9396 0.3422 -0.0041
vn 0.6554 0.7315 0.1882
vn 0.1921 0.9241 0.3304
vn -0.3248 0.8649 0.3827
vn -0.7529 0.5692 0.3304
vn -0.9749 0.1193 0.1882
vn -0.9326 -0.3608 -0.0041
vn -0.6414 -0.7422 -0.1944
vn -0.1817 -0.9255 -0.3324
vn 0.3044 -0.8108 -0.5000
vn 0.7282 -0.5301 -0.4343
vn 0.9610 -0.1091 -0.2540
vn 0.9394 0.3428 -0.0054
vn 0.6654 0.7048 0.2459
vn 0.2097 0.8773 0.4316
vn -0.3044 0.8108 0.5000
vn -0.7353 0.5225 0.4316
vn -0.9649 0.0927 0.2459
vn -0.9328 -0.3602 -0.0054
vn -0.6517 -0.7147 -0.2540
vn -0.1993 -0.8784 -0.4343
vn 0.2789 -0.7427 -0.6088
vn 0.7060 -0.4710 -0.5288
vn 0.9481 -0.0745 -0.3092
vn 0.9391 0.3435 -0.0066
vn 0.6780 0.6714 0.2994
vn 0.2317 0.8186 0.5255
vn -0.2789 0.7427 0.6088
vn -0.7133 0.4637 0.5255
vn -0.9523 0.0592 0.2994
vn -0.9331 -0.3595 -0.0066
vn -0.6647 -0.6801 -0.3092
vn -0.2215 -0.8193 -0.5288
vn 0.2486 -0.6620 -0.7071
vn 0.6797 -0.4009 -0.6142
vn 0.9327 -0.0335 -0.3592
vn 0.9388 0.3444 -0.0076
vn 0.6929 0.6317 0.3478
vn 0.2579 0.7489 0.6104
vn -0.2486 0.6620 0.7071
vn -0.6871 0.3940 0.6104
vn -0.9374 0.0195 0.3478
vn -0.9334 -0.3586 -0.0076
vn -0.6801 -0.6391 -0.3592
vn -0.2478 -0.7492 -0.6142
vn 0.2140 -0.5699 -0.7934
vn 0.6497 -0.3209 -0.6892
vn 0.9151 0.0133 -0.4030
vn 0.9384 0.3454 -0.0085
vn 0.7099 0.5864 0.3902
vn 0.2878 0.6694 0.6849
vn -0.2140 0.5699 0.7934
vn -0.6572 0.3146 0.6849
vn -0.9204 -0.0258 0.3902
vn -0.9338 -0.3577 -0.0085
vn -0.6977 -0.5923 -0.4030
vn -0.2779 -0.6692 -0.6892
vn 0.1758 -0.4681 -0.8660
vn 0.6165 -0.2325 -0.7523
vn 0.8957 0.0650 -0.4399
vn 0.9380 0.3465 -0.0093
vn 0.7287 0.5363 0.4259
vn 0.3208 0.5815 0.7476
vn -0.1758 0.4681 0.8660
vn -0.6242 0.2267 0.7476
vn -0.9016 -0.0759 0.4259
vn -0.9342 -0.3566 -0.0093
vn -0.7171 -0.5406 -0.4399
vn -0.3111 -0.5808 -0.7523
vn 0.1345 -0.3583 -0.9239
vn 0.5806 -0.1371 -0.8025
vn 0.8747 0.1208 -0.4693
vn 0.9376 0.3477 -0.0100
vn 0.7490 0.4823 0.4544
vn 0.3564 0.4867 0.7976
vn -0.1345 0.3583 0.9239
vn -0.5886 0.1319 0.7976
vn -0.8813 -0.1299 0.4544
vn -0.9347 -0.3554 -0.0100
vn -0.7380 -0.4848 -0.4693
vn -0.3469 -0.4854 -0.8025
vn 0.0910 -0.2423 -0.9659
vn 0.5428 -0.0363 -0.8391
vn 0.8526 0.1797 -0.4907
vn 0.9371 0.3489 -0.0104
vn 0.7704 0.4252 0.4751
vn 0.3940 0.3866 0.8339
vn -0.0910 0.2423 0.9659
vn -0.5511 0.0317 0.8339
vn -0.8599 -0.1869 0.4751
vn -0.9351 -0.3541 -0.0104
vn -0.7602 -0.4259 -0.4907
vn -0.3847 -0.3846 -0.8391
vn 0.0459 -0.1222 -0.9914
vn 0.5036 0.0680 -0.8612
vn 0.8297 0.2407 -0.5036
vn 0.9366 0.3502 -0.0107
vn 0.7926 0.3662 0.4876
vn 0.4329 0.2829 0.8559
vn -0.0459 0.1222 0.9914
vn -0.5121 -0.0719 0.8559
vn -0.8377 -0.2460 0.4876
vn -0.9356 -0.3528 -0.0107
vn -0.7831 -0.3649 -0.5036
vn -0.4239 -0.2803 -0.8612
vn -0.0000 -0.0000 -1.0000
vn 0.4638 0.1741 -0.8687
vn 0.8064 0.3028 -0.5080
vn 0.9361 0.3515 -0.0108
vn 0.8151 0.3061 0.4918
vn 0.4725 0.1774 0.8633
vn -0.0000 -0.0000 1.0000
vn -0.4725 -0.1774 0.8633
vn -0.8151 -0.3061 0.4918
vn -0.9361 -0.3515 -0.0108
vn -0.8064 -0.3028 -0.5080
vn -0.4638 -0.1741 -0.8687
vn -0.0459 0.1222 -0.9914
vn 0.4239 0.2803 -0.8612
vn 0.7831 0.3649 -0.5036
vn 0.9356 0.3528 -0.0107
vn 0.8377 0.2460 0.4876
vn 0.5121 0.0719 0.8559
vn 0.0459 -0.1222 0.9914
vn -0.4329 -0.2829 0.8559
vn -0.7926 -0.3662 0.4876
vn -0.9366 -0.3502 -0.0107
vn -0.8297 -0.2407 -0.5036
vn -0.5036 -0.0680 -0.8612
vn -0.0910 0.2423 -0.9659
vn 0.3847 0.3846 -0.8391
vn 0.7602 0.4259 -0.4907
vn 0.9351 0.3541 -0.0104
vn 0.8599 0.1869 0.4751
vn 0.5511 -0.0317 0.8339
vn 0.0910 -0.2423 0.9659
vn -0.3940 -0.3866 0.8339
vn -0.7704 -0.4252 0.4751
vn -0.9371 -0.3489 -0.0104
vn -0.8526 -0.1797 -0.4907
vn -0.5428 0.0363 -0.8391
vn -0.1345 0.3583 -0.9239
vn 0.3469 0.4854 -0.8025
vn 0.7380 0.4848 -0.4693
vn 0.9347 0.3554 -0.0100
vn 0.8813 0.1299 0.4544
vn 0.5886 -0.1319 0.7976
vn 0.1345 -0.3583 0.9239
vn -0.3564 -0.4867 0.7976
vn -0.7490 -0.4823 0.4544
vn -0.9376 -0.3477 -0.0100
vn -0.8747 -0.1208 -0.4693
vn -0.5806 0.1371 -0.8025
vn -0.1758 0.4681 -0.8660
vn 0.3111 0.5808 -0.7523
vn 0.7171 0.5406 -0.4399
vn 0.9342 0.3566 -0.0093
vn 0.9016 0.0759 0.4259
vn 0.6242 -0.2267 0.7476
vn 0.1758 -0.4681 0.8660
vn -0.3208 -0.5815 0.7476
vn -0.7287 -0.5363 0.4259
vn -0.9380 -0.3465 -0.0093
vn -0.8957 -0.0650 -0.4399
vn -0.6165 0.2325 -0.7523
vn -0.2140 0.5699 -0.7934
vn 0.2779 0.6692 -0.6892
vn 0.6977 0.5923 -0.4030
vn 0.9338 0.3577 -0.0085
vn 0.9204 0.0258 0.3902
vn 0.6572 -0.3146 0.6849
vn 0.2140 -0.5699 0.7934
vn -0.2878 -0.6694 0.6849
vn -0.7099 -0.5864 0.3902
vn -0.9384 -0.3454 -0.0085
vn -0.9151 -0.0133 -0.4030
vn -0.6497 0.3209 -0.6892
vn -0.2486 0.6620 -0.7071
vn 0.2478 0.7492 -0.6142
vn 0.6801 0.6391 -0.3592
vn 0.9334 0.3586 -0.0076
vn 0.9374 -0.0195 0.3478
vn 0.6871 -0.3940 0.6104
vn 0.2486 -0.6620 0.7071
vn -0.2579 -0.7489 0.6104
vn -0.6929 -0.6317 0.3478
vn -0.9388 -0.3444 -0.0076
vn -0.9327 0.0335 -0.3592
vn -0.6797 0.4009 -0.6142
vn -0.2789 0.7427 -0.6088
vn 0.2215 0.8193 -0.5288
vn 0.6647 0.6801 -0.3092
vn 0.9331 0.3595 -0.0066
vn 0.9523 -0.0592 0.2994
vn 0.7133 -0.4637 0.5255
vn 0.2789 -0.7427 0.6088
vn -0.2317 -0.8186 0.5255
vn -0.6780 -0.6714 0.2994
vn -0.9391 -0.3435 -0.0066
vn -0.9481 0.0745 -0.3092
vn -0.7060 0.4710 -0.5288
vn -0.3044 0.8108 -0.5000
vn 0.1993 0.8784 -0.4343
vn 0.6517 0.7147 -0.2540
vn 0.9328 0.3602 -0.0054
vn 0.9649 -0.0927 0.2459
vn 0.7353 -0.5225 0.4316
vn 0.3044 -0.8108 0.5000
vn -0.2097 -0.8773 0.4316
vn -0.6654 -0.7048 0.2459
vn -0.9394 -0.3428 -0.0054
vn -0.9610 0.1091 -0.2540
vn -0.7282 0.5301 -0.4343
vn -0.3248 0.8649 -0.3827
vn 0.1817 0.9255 -0.3324
vn 0.6414 0.7422 -0.1944
vn 0.9326 0.3608 -0.0041
vn 0.9749 -0.1193 0.1882
vn 0.7529 -0.5692 0.3304
vn 0.3248 -0.8649 0.3827
vn -0.1921 -0.9241 0.3304
vn -0.6554 -0.7315 0.1882
vn -0.9396 -0.3422 -0.0041
vn -0.9714 0.1366 -0.1944
vn -0.7459 0.5772 -0.3324
vn -0.3396 0.9043 -0.2588
vn 0.1688 0.9597 -0.2248
vn 0.6339 0.7622 -0.1315
vn 0.9325 0.3613 -0.0028
vn 0.9821 -0.1387 0.1273
vn 0.7656 -0.6032 0.2234
vn 0.3396 -0.9043 0.2588
vn -0.1794 -0.9581 0.2234
vn -0.6481 -0.7508 0.1273
vn -0.9398 -0.3418 -0.0028
vn -0.9789 0.1566 -0.1315
vn -0.7587 0.6114 -0.2248
vn -0.3485 0.9282 -0.1305
vn 0.1610 0.9804 -0.1134
vn 0.6293 0.7743 -0.0663
vn 0.9324 0.3615 -0.0014
vn 0.9865 -0.1504 0.0642
vn 0.7734 -0.6238 0.1127
vn 0.3485 -0.9282 0.1305
vn -0.1716 -0.9787 0.1127
vn -0.6437 -0.7626 0.0642
vn -0.9399 -0.3415 -0.0014
vn -0.9834 0.1687 -0.0663
vn -0.7665 0.6321 -0.1134
vn 0.1584 0.9874 -0.0000
vn 0.6278 0.7784 -0.0000
vn 0.9323 0.3616 -0.0000
vn 0.9880 -0.1544 -0.0000
vn 0.7760 -0.6308 -0.0000
vn -0.1690 -0.9856 -0.0000
vn -0.6422 -0.7665 -0.0000
vn -0.9399 -0.3414 -0.0000
vn -0.9850 0.1728 -0.0000
vn -0.7691 0.6391 -0.0000
vn 0.1610 0.9804 0.1134
vn 0.6293 0.7743 0.0663
vn 0.9324 0.3615 0.0014
vn 0.9865 -0.1504 -0.0642
vn 0.7734 -0.6238 -0.1127
vn -0.1716 -0.9787 -0.1127
vn -0.6437 -0.7626 -0.0642
vn -0.9399 -0.3415 0.0014
vn -0.9834 0.1687 0.0663
vn -0.7665 0.6321 0.1134
vn 0.1688 0.9597 0.2248
vn 0.6339 0.7622 0.1315
vn 0.9325 0.3613 0.0028
vn 0.9821 -0.1387 -0.1273
vn 0.7656 -0.6032 -0.2234
vn -0.1794 -0.9581 -0.2234
vn -0.6481 -0.7508 -0.1273
vn -0.9398 -0.3418 0.0028
vn -0.9789 0.1566 0.1315
vn -0.7587 0.6114 0.2248
vn 0.1817 0.9255 0.3324
vn 0.6414 0.7422 0.1944
vn 0.9326 0.3608 0.0041
vn 0.9749 -0.1193 -0.1882
vn 0.7529 -0.5692 -0.3304
vn -0.1921 -0.9241 -0.3304
vn -0.6554 -0.7315 -0.1882
vn -0.9396 -0.3422 0.0041
vn -0.9714 0.1366 0.1944
vn -0.7459 0.5772 0.3324
vn 0.1993 0.8784 0.4343
vn 0.6517 0.7147 0.2540
vn 0.9328 0.3602 0.0054
vn 0.9648 -0.0927 -0.2459
vn 0.7353 -0.5225 -0.4316
vn -0.2097 -0.8773 -0.4316
vn -0.6654 -0.7048 -0.2459
vn -0.9394 -0.3428 0.0054
vn -0.9610 0.1091 0.2540
vn -0.7282 0.5301 0.4343
vn 0.2215 0.8193 0.5288
vn 0.6647 0.6801 0.3092
vn 0.9331 0.3595 0.0066
vn 0.9523 -0.0592 -0.2994
vn 0.7133 -0.4637 -0.5255
vn -0.2317 -0.8186 -0.5255
vn -0.6780 -0.6714 -0.2994
vn -0.9391 -0.3435 0.0066
vn -0.9481 0.0745 0.3092
vn -0.7060 0.4710 0.5288
vn 0.2478 0.7492 0.6142
vn 0.6801 0.6391 0.3592
vn 0.9334 0.3586 0.0076
vn 0.9374 -0.0195 -0.3478
vn 0.6871 -0.3940 -0.6104
vn -0.2579 -0.7489 -0.6104
vn -0.6929 -0.6317 -0.3478
vn -0.9388 -0.3444 0.0076
vn -0.9327 0.0335 0.3592
vn -0.6797 0.4009 0.6142
vn 0.2779 0.6692 0.6892
vn 0.6977 0.5923 0.4030
vn 0.9338 0.3577 0.0085
vn 0.9204 0.0258 -0.3902
vn 0.6572 -0.3146 -0.6849
vn -0.2878 -0.6694 -0.6849
vn -0.7099 -0.5864 -0.3902
vn -0.9384 -0.3454 0.0085
vn -0.9151 -0.0133 0.4030
vn -0.6497 0.3209 0.6892
vn 0.3111 0.5808 0.7523
vn 0.7171 0.5406 0.4399
vn 0.9342 0.3566 0.0093
vn 0.9016 0.0759 -0.4259
vn 0.6242 -0.2267 -0.7476
vn -0.3208 -0.5815 -0.7476
vn -0.7287 -0.5363 -0.4259
vn -0.9380 -0.3465 0.0093
vn -0.8957 -0.0650 0.4399
vn -0.6165 0.2325 0.7523
vn 0.3469 0.4854 0.8025
vn 0.7380 0.4848 0.4693
vn 0.9347 0.3554 0.0100
vn 0.8813 0.1299 -0.4544
vn 0.5886 -0.1319 -0.7976
vn -0.3564 -0.4867 -0.7976
vn -0.7490 -0.4823 -0.4544
vn -0.9376 -0.3477 0.0100
vn -0.8747 -0.1208 0.4693
vn -0.5806 0.1371 0.8025
vn 0.3847 0.3846 0.8391
vn 0.7602 0.4259 0.4907
vn 0.9351 0.3541 0.0104
vn 0.8599 0.1869 -0.4751
vn 0.5511 -0.0317 -0.8339
vn -0.3940 -0.3866 -0.8339
vn -0.7704 -0.4252 -0.4751
vn -0.9371 -0.3489 0.0104
vn -0.8526 -0.1797 0.4907
vn -0.5428 0.0363 0.8391
vn 0.4239 0.2803 0.8612
vn 0.7831 0.3649 0.5036
vn 0.9356 0.3528 0.0107
vn 0.8377 0.2460 -0.4876
vn 0.5121 0.0719 -0.8559
vn -0.4329 -0.2829 -0.8559
vn -0.7926 -0.3662 -0.4876
vn -0.9366 -0.3502 0.0107
vn -0.8297 -0.2407 0.5036
vn -0.5036 -0.0680 0.8612
vn 0.4638 0.1741 0.8687
vn 0.8064 0.3028 0.5080
vn 0.9361 0.3515 0.0108
vn 0.8151 0.3061 -0.4918
vn 0.4725 0.1774 -0.8633
vn -0.4725 -0.1774 -0.8633
vn -0.8151 -0.3061 -0.4918
vn -0.9361 -0.3515 0.0108
vn -0.8064 -0.3028 0.5080
vn -0.4638 -0.1741 0.8687
vn 0.5036 0.0680 0.8612
vn 0.8297 0.2407 0.5036
vn 0.9366 0.3502 0.0107
vn 0.7926 0.3662 -0.4876
vn 0.4329 0.2829 -0.8559
vn -0.5121 -0.0719 -0.8559
vn -0.8377 -0.2460 -0.4876
vn -0.9356 -0.3528 0.0107
vn -0.7831 -0.3649 0.5036
vn -0.4239 -0.2803 0.8612
vn 0.5428 -0.0363 0.8391
vn 0.8526 0.1797 0.4907
vn 0.9371 0.3489 0.0104
vn 0.7704 0.4252 -0.4751
vn 0.3940 0.3866 -0.8339
vn -0.5511 0.0317 -0.8339
vn -0.8599 -0.1869 -0.4751
vn -0.9351 -0.3541 0.0104
vn -0.7602 -0.4259 0.4907
vn -0.3847 -0.3846 0.8391
vn 0.5806 -0.1371 0.8025
vn 0.8747 0.1208 0.4693
vn 0.9376 0.3477 0.0100
vn 0.7490 0.4823 -0.4544
vn 0.3564 0.4867 -0.7976
vn -0.5886 0.1319 -0.7976
vn -0.8813 -0.1299 -0.4544
vn -0.9347 -0.3554 0.0100
vn -0.7380 -0.4848 0.4693
vn -0.3469 -0.4854 0.8025
vn 0.6165 -0.2325 0.7523
vn 0.8957 0.0650 0.4399
vn 0.9380 0.3465 0.0093
vn 0.7287 0.5363 -0.4259
vn 0.3208 0.5815 -0.7476
vn -0.6242 0.2267 -0.7476
vn -0.9016 -0.0759 -0.4259
vn -0.9342 -0.3566 0.0093
vn -0.7171 -0.5406 0.4399
vn -0.3111 -0.5808 0.7523
vn 0.6497 -0.3209 0.6892
vn 0.9151 0.0133 0.4030
vn 0.9384 0.3454 0.0085
vn 0.7099 0.5864 -0.3902
vn 0.2878 0.6694 -0.6849
vn -0.6572 0.3146 -0.6849
vn -0.9204 -0.0258 -0.3902
vn -0.9338 -0.3577 0.0085
vn -0.6977 -0.5923 0.4030
vn -0.2779 -0.6692 0.6892
vn 0.6797 -0.4009 0.6142
vn 0.9327 -0.0335 0.3592
vn 0.9388 0.3444 0.0076
vn 0.6929 0.6317 -0.3478
vn 0.2579 0.7489 -0.6104
vn -0.6871 0.3940 -0.6104
vn -0.9374 0.0195 -0.3478
vn -0.9334 -0.3586 0.0076
vn -0.6801 -0.6391 0.3592
vn -0.2478 -0.7492 0.6142
vn 0.7060 -0.4710 0.5288
vn 0.9481 -0.0745 0.3092
vn 0.9391 0.3435 0.0066
vn 0.6780 0.6714 -0.2994
vn 0.2317 0.8186 -0.5255
vn -0.7133 0.4637 -0.5255
vn -0.9523 0.0592 -0.2994
vn -0.9331 -0.3595 0.0066
vn -0.6647 -0.6801 0.3092
vn -0.2215 -0.8193 0.5288
vn 0.7282 -0.5301 0.4343
vn 0.9610 -0.1091 0.2540
vn 0.9394 0.3428 0.0054
vn 0.6654 0.7048 -0.2459
vn 0.2097 0.8773 -0.4316
vn -0.7353 0.5225 -0.4316
vn -0.9649 0.0927 -0.2459
vn -0.9328 -0.3602 0.0054
vn -0.6517 -0.7147 0.2540
vn -0.1993 -0.8784 0.4343
vn 0.7459 -0.5772 0.3324
vn 0.9714 -0.1366 0.1944
vn 0.9396 0.3422 0.0041
vn 0.6554 0.7315 -0.1882
vn 0.1921 0.9241 -0.3304
vn -0.7529 0.5692 -0.3304
vn -0.9749 0.1193 -0.1882
vn -0.9326 -0.3608 0.0041
vn -0.6414 -0.7422 0.1944
vn -0.1817 -0.9255 0.3324
vn 0.7587 -0.6114 0.2248
vn 0.9789 -0.1566 0.1315
vn 0.9398 0.3418 0.0028
vn 0.6481 0.7508 -0.1273
vn 0.1794 0.9581 -0.2234
vn -0.7656 0.6032 -0.2234
vn -0.9821 0.1387 -0.1273
vn -0.9325 -0.3613 0.0028
vn -0.6339 -0.7622 0.1315
vn -0.1688 -0.9597 0.2248
vn 0.7665 -0.6321 0.1134
vn 0.9834 -0.1687 0.0663
vn 0.9399 0.3415 0.0014
vn 0.6437 0.7626 -0.0642
vn 0.1716 0.9787 -0.1127
vn -0.7734 0.6238 -0.1127
vn -0.9865 0.1504 -0.0642
vn -0.9324 -0.3615 0.0014
vn -0.6293 -0.7743 0.0663
vn -0.1610 -0.9804 0.1134
vn -0.6419 -0.2410 -0.7279
vn 0.6419 0.2410 -0.7279
vn -0.5920 -0.3740 -0.7139
vn 0.6919 0.1081 -0.7139
vn -0.5440 -0.5018 -0.6725
vn 0.7399 -0.0197 -0.6725
vn -0.4998 -0.6196 -0.6052
vn 0.7841 -0.1375 -0.6052
vn -0.4610 -0.7229 -0.5147
vn 0.8229 -0.2408 -0.5147
vn -0.4292 -0.8076 -0.4044
vn 0.8547 -0.3255 -0.4044
vn -0.4055 -0.8706 -0.2785
vn 0.8783 -0.3885 -0.2785
vn -0.3910 -0.9094 -0.1420
vn 0.8929 -0.4273 -0.1420
vn -0.3861 -0.9225 -0.0000
vn 0.8978 -0.4404 -0.0000
vn -0.3910 -0.9094 0.1420
vn 0.8929 -0.4273 0.1420
vn -0.4055 -0.8706 0.2785
vn 0.8783 -0.3885 0.2785
vn -0.4292 -0.8076 0.4044
vn 0.8547 -0.3255 0.4044
vn -0.4610 -0.7229 0.5147
vn 0.8229 -0.2408 0.5147
vn -0.4998 -0.6196 0.6052
vn 0.7841 -0.1375 0.6052
vn -0.5440 -0.5018 0.6725
vn 0.7399 -0.0197 0.6725
vn -0.5920 -0.3740 0.7139
vn 0.6919 0.1081 0.7139
vn -0.6419 -0.2410 0.7279
vn 0.6419 0.2410 0.7279
vn -0.6919 -0.1081 0.7139
vn 0.5920 0.3740 0.7139
vn -0.7399 0.0197 0.6725
vn 0.5440 0.5018 0.6725
vn -0.7841 0.1375 0.6052
vn 0.4998 0.6196 0.6052
vn -0.8229 0.2408 0.5147
vn 0.4610 0.7229 0.5147
vn -0.8547 0.3255 0.4044
vn 0.4292 0.8076 0.4044
vn -0.8783 0.3885 0.2785
vn 0.4055 0.8706 0.2785
vn -0.8929 0.4273 0.1420
vn 0.3910 0.9094 0.1420
vn -0.8978 0.4404 -0.0000
vn 0.3861 0.9225 -0.0000
vn -0.8929 0.4273 -0.1420
vn 0.3910 0.9094 -0.1420
vn -0.8783 0.3885 -0.2785
vn 0.4055 0.8706 -0.2785
vn -0.8547 0.3255 -0.4044
vn 0.4292 0.8076 -0.4044
vn -0.8229 0.2408 -0.5147
vn 0.4610 0.7229 -0.5147
vn -0.7841 0.1375 -0.6052
vn 0.4998 0.6196 -0.6052
vn -0.7399 0.0197 -0.6725
vn 0.5440 0.5018 -0.6725
vn -0.6919 -0.1081 -0.7139
vn 0.5920 0.3740 -0.7139
vn 0.6833 0.2566 -0.6836
vn 0.7301 0.1317 -0.6705
vn 0.7752 0.0117 -0.6316
vn 0.8168 -0.0990 -0.5684
vn 0.8532 -0.1960 -0.4834
vn 0.8831 -0.2756 -0.3798
vn 0.9053 -0.3347 -0.2616
vn 0.9190 -0.3711 -0.1334
vn 0.9236 -0.3834 -0.0000
vn 0.9190 -0.3711 0.1334
vn 0.9053 -0.3347 0.2616
vn 0.8831 -0.2756 0.3798
vn 0.8532 -0.1960 0.4834
vn 0.8168 -0.0990 0.5684
vn 0.7752 0.0117 0.6316
vn 0.7301 0.1317 0.6705
vn 0.6833 0.2566 0.6836
vn 0.6364 0.3814 0.6705
vn 0.5913 0.5015 0.6316
vn 0.5497 0.6121 0.5684
vn 0.5133 0.7091 0.4834
vn 0.4834 0.7887 0.3798
vn 0.4612 0.8478 0.2616
vn 0.4476 0.8843 0.1334
vn 0.4429 0.8965 -0.0000
vn 0.4476 0.8843 -0.1334
vn 0.4612 0.8478 -0.2616
vn 0.4834 0.7887 -0.3798
vn 0.5133 0.7091 -0.4834
vn 0.5497 0.6121 -0.5684
vn 0.5913 0.5015 -0.6316
vn 0.6364 0.3814 -0.6705
vn 0.9362 0.3515 -0.0000
vn -0.6833 -0.2566 -0.6836
vn -0.6364 -0.3814 -0.6705
vn -0.5913 -0.5015 -0.6316
vn -0.5497 -0.6121 -0.5684
vn -0.5133 -0.7091 -0.4834
vn -0.4834 -0.7887 -0.3798
vn -0.4612 -0.8478 -0.2616
vn -0.4476 -0.8843 -0.1334
vn -0.4429 -0.8965 -0.0000
vn -0.4476 -0.8843 0.1334
vn -0.4612 -0.8478 0.2616
vn -0.4834 -0.7887 0.3798
vn -0.5133 -0.7091 0.4834
vn -0.5497 -0.6121 0.5684
vn -0.5913 -0.5015 0.6316
vn -0.6364 -0.3814 0.6705
vn -0.6833 -0.2566 0.6836
vn -0.7301 -0.1317 0.6705
vn -0.7752 -0.0117 0.6316
vn -0.8168 0.0990 0.5684
vn -0.8532 0.1960 0.4834
vn -0.8831 0.2756 0.3798
vn -0.9053 0.3347 0.2616
vn -0.9190 0.3711 0.1334
vn -0.9236 0.3834 -0.0000
vn -0.9190 0.3711 -0.1334
vn -0.9053 0.3347 -0.2616
vn -0.8831 0.2756 -0.3798
vn -0.8532 0.1960 -0.4834
vn -0.8168 0.0990 -0.5684
vn -0.7752 -0.0117 -0.6316
vn -0.7301 -0.1317 -0.6705
vn -0.4429 -0.8966 -0.0000
vn -0.7752 -0.0116 0.6316
vn 0.0686 -0.1826 -0.9808
vn 0.1953 -0.5201 -0.8315
vn 0.2923 -0.7784 -0.5556
vn 0.3448 -0.9182 -0.1951
vn 0.3448 -0.9182 0.1951
vn 0.2923 -0.7784 0.5556
vn 0.1953 -0.5201 0.8315
vn 0.0686 -0.1826 0.9808
vn -0.0686 0.1826 0.9808
vn -0.1953 0.5201 0.8315
vn -0.2923 0.7784 0.5556
vn -0.3448 0.9182 0.1951
vn -0.3448 0.9182 -0.1951
vn -0.2923 0.7784 -0.5556
vn -0.1953 0.5201 -0.8315
vn -0.0686 0.1826 -0.9808
s 1
f 1//1 2//2 4//4 3//3
f 39//39 37//37 8//8 7//7
f 35//35 33//33 5//5 6//6
f 43//43 41//41 9//9 10//10
f 11//11 13//13 14//14 12//12
f 40//40 17//17 18//18 38//38
f 36//36 16//16 15//15 34//34
f 44//44 20//20 19//19 42//42
f 100//71 42//42 19//19 85//58
f 102//72 46//46 14//14 86//60
f 85//58 19//19 20//20 109//59
f 96//67 34//34 15//15 87//62
f 104//68 50//50 12//12 108//57
f 98//69 38//38 18//18 88//64
f 106//70 54//54 13//13 89//66
f 88//64 18//18 17//17 112//65
f 87//62 15//15 16//16 111//63
f 89//66 13//13 11//11 110//61
f 49//49 51//51 22//22 21//21
f 50//50 23//23 24//24 52//52
f 105//67 52//52 24//24 90//67
f 97//68 36//36 23//23 91//68
f 53//53 55//55 26//26 25//25
f 54//54 27//27 28//28 56//56
f 107//69 56//56 28//28 92//69
f 99//70 40//40 27//27 93//70
f 45//45 47//47 30//30 29//29
f 46//46 31//31 32//32 48//48
f 103//71 48//48 32//32 94//71
f 101//72 44//44 31//31 95//72
f 21//21 22//22 33//33 35//35
f 23//23 36//36 34//34 24//24
f 90//67 24//24 34//34 96//67
f 111//63 16//16 36//36 97//68
f 25//25 26//26 37//37 39//39
f 27//27 40//40 38//38 28//28
f 92//69 28//28 38//38 98//69
f 112//65 17//17 40//40 99//70
f 29//29 30//30 41//41 43//43
f 31//31 44//44 42//42 32//32
f 94//71 32//32 42//42 100//71
f 109//59 20//20 44//44 101//72
f 95//72 31//31 46//46 102//72
f 4//4 2//2 47//47 45//45
f 14//14 46//46 48//48 12//12
f 108//57 12//12 48//48 103//71
f 91//68 23//23 50//50 104//68
f 2//2 1//1 51//51 49//49
f 12//12 50//50 52//52 11//11
f 110//61 11//11 52//52 105//67
f 93//70 27//27 54//54 106//70
f 3//3 4//4 55//55 53//53
f 13//13 54//54 56//56 14//14
f 86//60 14//14 56//56 107//69
f 41//41 77//71 58//58 9//9
f 45//45 79//72 60//60 4//4
f 9//9 58//58 59//59 10//10
f 33//33 73//67 62//62 5//5
f 49//49 81//68 57//57 2//2
f 37//37 75//69 64//64 8//8
f 53//53 83//70 66//66 3//3
f 8//8 64//64 65//65 7//7
f 5//5 62//62 63//63 6//6
f 3//3 66//66 61//61 1//1
f 51//51 82//67 67//67 22//22
f 35//35 74//68 68//68 21//21
f 55//55 84//69 69//69 26//26
f 39//39 76//70 70//70 25//25
f 47//47 80//71 71//71 30//30
f 43//43 78//72 72//72 29//29
f 22//22 67//67 73//67 33//33
f 6//6 63//63 74//68 35//35
f 26//26 69//69 75//69 37//37
f 7//7 65//65 76//70 39//39
f 30//30 71//71 77//71 41//41
f 10//10 59//59 78//72 43//43
f 29//29 72//72 79//72 45//45
f 2//2 57//57 80//71 47//47
f 21//21 68//68 81//68 49//49
f 1//1 61//61 82//67 51//51
f 25//25 70//70 83//70 53//53
f 4//4 60//60 84//69 55//55
f 77//71 100//71 85//58 58//58
f 79//72 102//72 86//60 60//60
f 58//58 85//58 109//59 59//59
f 73//67 96//67 87//62 62//62
f 81//68 104//68 108//57 57//57
f 75//69 98//69 88//64 64//64
f 83//70 106//70 89//66 66//66
f 64//64 88//64 112//65 65//65
f 62//62 87//62 111//63 63//63
f 66//66 89//66 110//61 61//61
f 82//67 105//67 90//67 67//67
f 74//68 97//68 91//68 68//68
f 84//69 107//69 92//69 69//69
f 76//70 99//70 93//70 70//70
f 80//71 103//71 94//71 71//71
f 78//72 101//72 95//72 72//72
f 67//67 90//67 96//67 73//67
f 63//63 111//63 97//68 74//68
f 69//69 92//69 98//69 75//69
f 65//65 112//65 99//70 76//70
f 71//71 94//71 100//71 77//71
f 59//59 109//59 101//72 78//72
f 72//72 95//72 102//72 79//72
f 57//57 108//57 103//71 80//71
f 68//68 91//68 104//68 81//68
f 61//61 110//61 105//67 82//67
f 70//70 93//70 106//70 83//70
f 60//60 86//60 107//69 84//69
f 113//73 125//85 126//86 114//74
f 114//74 126//86 127//87 115//75
f 115//75 127//87 128//88 116//76
f 116//76 128//88 129//89 117//77
f 117//77 129//89 130//90 118//78
f 118//78 130//90 131//91 119//79
f 119//79 131//91 132//92 120//80
f 120//80 132//92 133//93 121//81
f 121//81 133//93 134//94 122//82
f 122//82 134//94 135//95 123//83
f 123//83 135//95 136//96 124//84
f 113//73 124//84 136//96 125//85
f 125//85 137//97 138//98 126//86
f 126//86 138//98 139//99 127//87
f 127//87 139//99 140//100 128//88
f 128//88 140//100 141//101 129//89
f 129//89 141//101 142//102 130//90
f 130//90 142//102 143//103 131//91
f 131//91 143//103 144//104 132//92
f 132//92 144//104 145//105 133//93
f 133//93 145//105 146//106 134//94
f 134//94 146//106 147//107 135//95
f 135//95 147//107 148//108 136//96
f 136//96 148//108 137//97 125//85
f 137//97 149//109 150//110 138//98
f 138//98 150//110 151//111 139//99
f 139//99 151//111 152//112 140//100
f 140//100 152//112 153//113 141//101
f 141//101 153//113 154//114 142//102
f 142//102 154//114 155//115 143//103
f 143//103 155//115 156//116 144//104
f 144//104 156//116 157//117 145//105
f 145//105 157//117 158//118 146//106
f 146//106 158//118 159//119 147//107
f 147//107 159//119 160//120 148//108
f 148//108 160//120 149//109 137//97
f 149//109 161//121 162//122 150//110
f 150//110 162//122 163//123 151//111
f 151//111 163//123 164//124 152//112
f 152//112 164//124 165//125 153//113
f 153//113 165//125 166//126 154//114
f 154//114 166//126 167//127 155//115
f 155//115 167//127 168//128 156//116
f 156//116 168//128 169//129 157//117
f 157//117 169//129 170//130 158//118
f 158//118 170//130 171//131 159//119
f 159//119 171//131 172//132 160//120
f 160//120 172//132 161//121 149//109
f 161//121 173//133 174//134 162//122
f 162//122 174//134 175//135 163//123
f 163//123 175//135 176//136 164//124
f 164//124 176//136 177//137 165//125
f 165//125 177//137 178//138 166//126
f 166//126 178//138 179//139 167//127
f 167//127 179//139 180//140 168//128
f 168//128 180//140 181//141 169//129
f 169//129 181//141 182//142 170//130
f 170//130 182//142 183//143 171//131
f 171//131 183//143 184//144 172//132
f 172//132 184//144 173//133 161//121
f 173//133 185//145 186//146 174//134
f 174//134 186//146 187//147 175//135
f 175//135 187//147 188//148 176//136
f 176//136 188//148 189//149 177//137
f 177//137 189//149 190//150 178//138
f 178//138 190//150 191//151 179//139
f 179//139 191//151 192//152 180//140
f 180//140 192//152 193//153 181//141
f 181//141 193//153 194//154 182//142
f 182//142 194//154 195//155 183//143
f 183//143 195//155 196//156 184//144
f 184//144 196//156 185//145 173//133
f 185//145 197//157 198//158 186//146
f 186//146 198//158 199//159 187//147
f 187//147 199//159 200//160 188//148
f 188//148 200//160 201//161 189//149
f 189//149 201//161 202//162 190//150
f 190//150 202//162 203//163 191//151
f 191//151 203//163 204//164 192//152
f 192//152 204//164 205//165 193//153
f 193//153 205//165 206//166 194//154
f 194//154 206//166 207//167 195//155
f 195//155 207//167 208//168 196//156
f 196//156 208//168 197//157 185//145
f 197//157 209//169 210//170 198//158
f 198//158 210//170 211//171 199//159
f 199//159 211//171 212//172 200//160
f 200//160 212//172 213//173 201//161
f 201//161 213//173 214//174 202//162
f 202//162 214//174 215//175 203//163
f 203//163 215//175 216//176 204//164
f 204//164 216//176 217//177 205//165
f 205//165 217//177 218//178 206//166
f 206//166 218//178 219//179 207//167
f 207//167 219//179 220//180 208//168
f 208//168 220//180 209//169 197//157
f 209//169 221//181 222//182 210//170
f 210//170 222//182 223//183 211//171
f 211//171 223//183 224//184 212//172
f 212//172 224//184 225//185 213//173
f 213//173 225//185 226//186 214//174
f 214//174 226//186 227//187 215//175
f 215//175 227//187 228//188 216//176
f 216//176 228//188 229//189 217//177
f 217//177 229//189 230//190 218//178
f 218//178 230//190 231//191 219//179
f 219//179 231//191 232//192 220//180
f 220//180 232//192 221//181 209//169
f 221//181 233//193 234//194 222//182
f 222//182 234//194 235//195 223//183
f 223//183 235//195 236//196 224//184
f 224//184 236//196 237//197 225//185
f 225//185 237//197 238//198 226//186
f 226//186 238//198 239//199 227//187
f 227//187 239//199 240//200 228//188
f 228//188 240//200 241//201 229//189
f 229//189 241//201 242//202 230//190
f 230//190 242//202 243//203 231//191
f 231//191 243//203 244//204 232//192
f 232//192 244//204 233//193 221//181
f 233//193 245//205 246//206 234//194
f 234//194 246//206 247//207 235//195
f 235//195 247//207 248//208 236//196
f 236//196 248//208 249//209 237//197
f 237//197 249//209 250//210 238//198
f 238//198 250//210 251//211 239//199
f 239//199 251//211 252//212 240//200
f 240//200 252//212 253//213 241//201
f 241//201 253//213 254//214 242//202
f 242//202 254//214 255//215 243//203
f 243//203 255//215 256//216 244//204
f 244//204 256//216 245//205 233//193
f 245//205 257//217 258//218 246//206
f 246//206 258//218 259//219 247//207
f 247//207 259//219 260//220 248//208
f 248//208 260//220 261//221 249//209
f 249//209 261//221 262//222 250//210
f 250//210 262//222 263//223 251//211
f 251//211 263//223 264//224 252//212
f 252//212 264//224 265//225 253//213
f 253//213 265//225 266//226 254//214
f 254//214 266//226 267//227 255//215
f 255//215 267//227 268//228 256//216
f 256//216 268//228 257//217 245//205
f 257//217 269//229 270//230 258//218
f 258//218 270//230 271//231 259//219
f 259//219 271//231 272//232 260//220
f 260//220 272//232 273//233 261//221
f 261//221 273//233 274//234 262//222
f 262//222 274//234 275//235 263//223
f 263//223 275//235 276//236 264//224
f 264//224 276//236 277//237 265//225
f 265//225 277//237 278//238 266//226
f 266//226 278//238 279//239 267//227
f 267//227 279//239 280//240 268//228
f 268//228 280//240 269//229 257//217
f 269//229 281//241 282//242 270//230
f 270//230 282//242 283//243 271//231
f 271//231 283//243 284//244 272//232
f 272//232 284//244 285//245 273//233
f 273//233 285//245 286//246 274//234
f 274//234 286//246 287//247 275//235
f 275//235 287//247 288//248 276//236
f 276//236 288//248 289//249 277//237
f 277//237 289//249 290//250 278//238
f 278//238 290//250 291//251 279//239
f 279//239 291//251 292//252 280//240
f 280//240 292//252 281//241 269//229
f 281//241 293//253 294//254 282//242
f 282//242 294//254 295//255 283//243
f 283//243 295//255 296//256 284//244
f 284//244 296//256 297//257 285//245
f 285//245 297//257 298//258 286//246
f 286//246 298//258 299//259 287//247
f 287//247 299//259 300//260 288//248
f 288//248 300//260 301//261 289//249
f 289//249 301//261 302//262 290//250
f 290//250 302//262 303//263 291//251
f 291//251 303//263 304//264 292//252
f 292//252 304//264 293//253 281//241
f 293//253 305//265 306//266 294//254
f 294//254 306//266 307//267 295//255
f 295//255 307//267 308//268 296//256
f 296//256 308//268 309//269 297//257
f 297//257 309//269 310//270 298//258
f 298//258 310//270 311//271 299//259
f 299//259 311//271 312//272 300//260
f 300//260 312//272 313//273 301//261
f 301//261 313//273 314//274 302//262
f 302//262 314//274 315//275 303//263
f 303//263 315//275 316//276 304//264
f 304//264 316//276 305//265 293//253
f 305//265 317//277 318//278 306//266
f 306//266 318//278 319//279 307//267
f 307//267 319//279 320//280 308//268
f 308//268 320//280 321//281 309//269
f 309//269 321//281 322//282 310//270
f 310//270 322//282 323//283 311//271
f 311//271 323//283 324//284 312//272
f 312//272 324//284 325//285 313//273
f 313//273 325//285 326//286 314//274
f 314//274 326//286 327//287 315//275
f 315//275 327//287 328//288 316//276
f 316//276 328//288 317//277 305//265
f 317//277 329//289 330//290 318//278
f 318//278 330//290 331//291 319//279
f 319//279 331//291 332//292 320//280
f 320//280 332//292 333//293 321//281
f 321//281 333//293 334//294 322//282
f 322//282 334//294 335//295 323//283
f 323//283 335//295 336//296 324//284
f 324//284 336//296 337//297 325//285
f 325//285 337//297 338//298 326//286
f 326//286 338//298 339//299 327//287
f 327//287 339//299 340//300 328//288
f 328//288 340//300 329//289 317//277
f 329//289 341//301 342//302 330//290
f 330//290 342//302 343//303 331//291
f 331//291 343//303 344//304 332//292
f 332//292 344//304 345//305 333//293
f 333//293 345//305 346//306 334//294
f 334//294 346//306 347//307 335//295
f 335//295 347//307 348//308 336//296
f 336//296 348//308 349//309 337//297
f 337//297 349//309 350//310 338//298
f 338//298 350//310 351//311 339//299
f 339//299 351//311 352//312 340//300
f 340//300 352//312 341//301 329//289
f 341//301 353//313 354//314 342//302
f 342//302 354//314 355//315 343//303
f 343//303 355//315 356//316 344//304
f 344//304 356//316 357//317 345//305
f 345//305 357//317 358//318 346//306
f 346//306 358//318 359//319 347//307
f 347//307 359//319 360//320 348//308
f 348//308 360//320 361//321 349//309
f 349//309 361//321 362//322 350//310
f 350//310 362//322 363//323 351//311
f 351//311 363//323 364//324 352//312
f 352//312 364//324 353//313 341//301
f 353//313 365//325 366//326 354//314
f 354//314 366//326 367//327 355//315
f 355//315 367//327 368//328 356//316
f 356//316 368//328 369//329 357//317
f 357//317 369//329 370//330 358//318
f 358//318 370//330 371//331 359//319
f 359//319 371//331 372//332 360//320
f 360//320 372//332 373//333 361//321
f 361//321 373//333 374//334 362//322
f 362//322 374//334 375//335 363//323
f 363//323 375//335 376//336 364//324
f 364//324 376//336 365//325 353//313
f 365//325 377//337 378//338 366//326
f 366//326 378//338 379//339 367//327
f 367//327 379//339 380//340 368//328
f 368//328 380//340 381//341 369//329
f 369//329 381//341 382//342 370//330
f 370//330 382//342 383//343 371//331
f 371//331 383//343 384//344 372//332
f 372//332 384//344 385//345 373//333
f 373//333 385//345 386//346 374//334
f 374//334 386//346 387//347 375//335
f 375//335 387//347 388//348 376//336
f 376//336 388//348 377//337 365//325
f 377//337 389//349 390//350 378//338
f 378//338 390//350 391//351 379//339
f 379//339 391//351 392//352 380//340
f 380//340 392//352 393//353 381//341
f 381//341 393//353 394//354 382//342
f 382//342 394//354 395//355 383//343
f 383//343 395//355 396//356 384//344
f 384//344 396//356 397//357 385//345
f 385//345 397//357 398//358 386//346
f 386//346 398//358 399//359 387//347
f 387//347 399//359 400//360 388//348
f 388//348 400//360 389//349 377//337
f 389//349 401//79 402//361 390//350
f 390//350 402//361 403//362 391//351
f 391//351 403//362 404//363 392//352
f 392//352 404//363 405//364 393//353
f 393//353 405//364 406//365 394//354
f 394//354 406//365 407//73 395//355
f 395//355 407//73 408//366 396//356
f 396//356 408//366 409//367 397//357
f 397//357 409//367 410//368 398//358
f 398//358 410//368 411//369 399//359
f 399//359 411//369 412//370 400//360
f 400//360 412//370 401//79 389//349
f 401//79 413//91 414//371 402//361
f 402//361 414//371 415//372 403//362
f 403//362 415//372 416//373 404//363
f 404//363 416//373 417//374 405//364
f 405//364 417//374 418//375 406//365
f 406//365 418//375 419//85 407//73
f 407//73 419//85 420//376 408//366
f 408//366 420//376 421//377 409//367
f 409//367 421//377 422//378 410//368
f 410//368 422//378 423//379 411//369
f 411//369 423//379 424//380 412//370
f 412//370 424//380 413//91 401//79
f 413//91 425//103 426//381 414//371
f 414//371 426//381 427//382 415//372
f 415//372 427//382 428//383 416//373
f 416//373 428//383 429//384 417//374
f 417//374 429//384 430//385 418//375
f 418//375 430//385 431//97 419//85
f 419//85 431//97 432//386 420//376
f 420//376 432//386 433//387 421//377
f 421//377 433//387 434//388 422//378
f 422//378 434//388 435//389 423//379
f 423//379 435//389 436//390 424//380
f 424//380 436//390 425//103 413//91
f 425//103 437//115 438//391 426//381
f 426//381 438//391 439//392 427//382
f 427//382 439//392 440//393 428//383
f 428//383 440//393 441//394 429//384
f 429//384 441//394 442//395 430//385
f 430//385 442//395 443//109 431//97
f 431//97 443//109 444//396 432//386
f 432//386 444//396 445//397 433//387
f 433//387 445//397 446//398 434//388
f 434//388 446//398 447//399 435//389
f 435//389 447//399 448//400 436//390
f 436//390 448//400 437//115 425//103
f 437//115 449//127 450//401 438//391
f 438//391 450//401 451//402 439//392
f 439//392 451//402 452//403 440//393
f 440//393 452//403 453//404 441//394
f 441//394 453//404 454//405 442//395
f 442//395 454//405 455//121 443//109
f 443//109 455//121 456//406 444//396
f 444//396 456//406 457//407 445//397
f 445//397 457//407 458//408 446//398
f 446//398 458//408 459//409 447//399
f 447//399 459//409 460//410 448//400
f 448//400 460//410 449//127 437//115
f 449//127 461//139 462//411 450//401
f 450//401 462//411 463//412 451//402
f 451//402 463//412 464//413 452//403
f 452//403 464//413 465//414 453//404
f 453//404 465//414 466//415 454//405
f 454//405 466//415 467//133 455//121
f 455//121 467//133 468//416 456//406
f 456//406 468//416 469//417 457//407
f 457//407 469//417 470//418 458//408
f 458//408 470//418 471//419 459//409
f 459//409 471//419 472//420 460//410
f 460//410 472//420 461//139 449//127
f 461//139 473//151 474//421 462//411
f 462//411 474//421 475//422 463//412
f 463//412 475//422 476//423 464//413
f 464//413 476//423 477//424 465//414
f 465//414 477//424 478//425 466//415
f 466//415 478//425 479//145 467//133
f 467//133 479//145 480//426 468//416
f 468//416 480//426 481//427 469//417
f 469//417 481//427 482//428 470//418
f 470//418 482//428 483//429 471//419
f 471//419 483//429 484//430 472//420
f 472//420 484//430 473//151 461//139
f 473//151 485//163 486//431 474//421
f 474//421 486//431 487//432 475//422
f 475//422 487//432 488//433 476//423
f 476//423 488//433 489//434 477//424
f 477//424 489//434 490//435 478//425
f 478//425 490//435 491//157 479//145
f 479//145 491//157 492//436 480//426
f 480//426 492//436 493//437 481//427
f 481//427 493//437 494//438 482//428
f 482//428 494//438 495//439 483//429
f 483//429 495//439 496//440 484//430
f 484//430 496//440 485//163 473//151
f 485//163 497//175 498//441 486//431
f 486//431 498//441 499//442 487//432
f 487//432 499//442 500//443 488//433
f 488//433 500//443 501//444 489//434
f 489//434 501//444 502//445 490//435
f 490//435 502//445 503//169 491//157
f 491//157 503//169 504//446 492//436
f 492//436 504//446 505//447 493//437
f 493//437 505//447 506//448 494//438
f 494//438 506//448 507//449 495//439
f 495//439 507//449 508//450 496//440
f 496//440 508//450 497//175 485//163
f 497//175 509//187 510//451 498//441
f 498//441 510//451 511//452 499//442
f 499//442 511//452 512//453 500//443
f 500//443 512//453 513//454 501//444
f 501//444 513//454 514//455 502//445
f 502//445 514//455 515//181 503//169
f 503//169 515//181 516//456 504//446
f 504//446 516//456 517//457 505//447
f 505//447 517//457 518//458 506//448
f 506//448 518//458 519//459 507//449
f 507//449 519//459 520//460 508//450
f 508//450 520//460 509//187 497//175
f 509//187 521//199 522//461 510//451
f 510//451 522//461 523//462 511//452
f 511//452 523//462 524//463 512//453
f 512//453 524//463 525//464 513//454
f 513//454 525//464 526//465 514//455
f 514//455 526//465 527//193 515//181
f 515//181 527//193 528//466 516//456
f 516//456 528//466 529//467 517//457
f 517//457 529//467 530//468 518//458
f 518//458 530//468 531//469 519//459
f 519//459 531//469 532//470 520//460
f 520//460 532//470 521//199 509//187
f 521//199 533//211 534//471 522//461
f 522//461 534//471 535//472 523//462
f 523//462 535//472 536//473 524//463
f 524//463 536//473 537//474 525//464
f 525//464 537//474 538//475 526//465
f 526//465 538//475 539//205 527//193
f 527//193 539//205 540//476 528//466
f 528//466 540//476 541//477 529//467
f 529//467 541//477 542//478 530//468
f 530//468 542//478 543//479 531//469
f 531//469 543//479 544//480 532//470
f 532//470 544//480 533//211 521//199
f 533//211 545//223 546//481 534//471
f 534//471 546//481 547//482 535//472
f 535//472 547//482 548//483 536//473
f 536//473 548//483 549//484 537//474
f 537//474 549//484 550//485 538//475
f 538//475 550//485 551//217 539//205
f 539//205 551//217 552//486 540//476
f 540//476 552//486 553//487 541//477
f 541//477 553//487 554//488 542//478
f 542//478 554//488 555//489 543//479
f 543//479 555//489 556//490 544//480
f 544//480 556//490 545//223 533//211
f 545//223 557//235 558//491 546//481
f 546//481 558//491 559//492 547//482
f 547//482 559//492 560//493 548//483
f 548//483 560//493 561//494 549//484
f 549//484 561//494 562//495 550//485
f 550//485 562//495 563//229 551//217
f 551//217 563//229 564//496 552//486
f 552//486 564//496 565//497 553//487
f 553//487 565//497 566//498 554//488
f 554//488 566//498 567//499 555//489
f 555//489 567//499 568//500 556//490
f 556//490 568//500 557//235 545//223
f 557//235 569//247 570//501 558//491
f 558//491 570//501 571//502 559//492
f 559//492 571//502 572//503 560//493
f 560//493 572//503 573//504 561//494
f 561//494 573//504 574//505 562//495
f 562//495 574//505 575//241 563//229
f 563//229 575//241 576//506 564//496
f 564//496 576//506 577//507 565//497
f 565//497 577//507 578//508 566//498
f 566//498 578//508 579//509 567//499
f 567//499 579//509 580//510 568//500
f 568//500 580//510 569//247 557//235
f 569//247 581//259 582//511 570//501
f 570//501 582//511 583//512 571//502
f 571//502 583//512 584//513 572//503
f 572//503 584//513 585//514 573//504
f 573//504 585//514 586//515 574//505
f 574//505 586//515 587//253 575//241
f 575//241 587//253 588//516 576//506
f 576//506 588//516 589//517 577//507
f 577//507 589//517 590//518 578//508
f 578//508 590//518 591//519 579//509
f 579//509 591//519 592//520 580//510
f 580//510 592//520 581//259 569//247
f 581//259 593//271 594//521 582//511
f 582//511 594//521 595//522 583//512
f 583//512 595//522 596//523 584//513
f 584//513 596//523 597//524 585//514
f 585//514 597//524 598//525 586//515
f 586//515 598//525 599//265 587//253
f 587//253 599//265 600//526 588//516
f 588//516 600//526 601//527 589//517
f 589//517 601//527 602//528 590//518
f 590//518 602//528 603//529 591//519
f 591//519 603//529 604//530 592//520
f 592//520 604//530 593//271 581//259
f 593//271 605//283 606//531 594//521
f 594//521 606//531 607//532 595//522
f 595//522 607//532 608//533 596//523
f 596//523 608//533 609//534 597//524
f 597//524 609//534 610//535 598//525
f 598//525 610//535 611//277 599//265
f 599//265 611//277 612//536 600//526
f 600//526 612//536 613//537 601//527
f 601//527 613//537 614//538 602//528
f 602//528 614//538 615//539 603//529
f 603//529 615//539 616//540 604//530
f 604//530 616//540 605//283 593//271
f 605//283 617//295 618//541 606//531
f 606//531 618//541 619//542 607//532
f 607//532 619//542 620//543 608//533
f 608//533 620//543 621//544 609//534
f 609//534 621//544 622//545 610//535
f 610//535 622//545 623//289 611//277
f 611//277 623//289 624//546 612//536
f 612//536 624//546 625//547 613//537
f 613//537 625//547 626//548 614//538
f 614//538 626//548 627//549 615//539
f 615//539 627//549 628//550 616//540
f 616//540 628//550 617//295 605//283
f 617//295 629//307 630//551 618//541
f 618//541 630//551 631//552 619//542
f 619//542 631//552 632//553 620//543
f 620//543 632//553 633//554 621//544
f 621//544 633//554 634//555 622//545
f 622//545 634//555 635//301 623//289
f 623//289 635//301 636//556 624//546
f 624//546 636//556 637//557 625//547
f 625//547 637//557 638//558 626//548
f 626//548 638//558 639//559 627//549
f 627//549 639//559 640//560 628//550
f 628//550 640//560 629//307 617//295
f 629//307 641//319 642//561 630//551
f 630//551 642//561 643//562 631//552
f 631//552 643//562 644//563 632//553
f 632//553 644//563 645//564 633//554
f 633//554 645//564 646//565 634//555
f 634//555 646//565 647//313 635//301
f 635//301 647//313 648//566 636//556
f 636//556 648//566 649//567 637//557
f 637//557 649//567 650//568 638//558
f 638//558 650//568 651//569 639//559
f 639//559 651//569 652//570 640//560
f 640//560 652//570 641//319 629//307
f 641//319 653//331 654//571 642//561
f 642//561 654//571 655//572 643//562
f 643//562 655//572 656//573 644//563
f 644//563 656//573 657//574 645//564
f 645//564 657//574 658//575 646//565
f 646//565 658//575 659//325 647//313
f 647//313 659//325 660//576 648//566
f 648//566 660//576 661//577 649//567
f 649//567 661//577 662//578 650//568
f 650//568 662//578 663//579 651//569
f 651//569 663//579 664//580 652//570
f 652//570 664//580 653//331 641//319
f 653//331 665//343 666//581 654//571
f 654//571 666//581 667//582 655//572
f 655//572 667//582 668//583 656//573
f 656//573 668//583 669//584 657//574
f 657//574 669//584 670//585 658//575
f 658//575 670//585 671//337 659//325
f 659//325 671//337 672//586 660//576
f 660//576 672//586 673//587 661//577
f 661//577 673//587 674//588 662//578
f 662//578 674//588 675//589 663//579
f 663//579 675//589 676//590 664//580
f 664//580 676//590 665//343 653//331
f 665//343 677//355 678//591 666//581
f 666//581 678//591 679//592 667//582
f 667//582 679//592 680//593 668//583
f 668//583 680//593 681//594 669//584
f 669//584 681//594 682//595 670//585
f 670//585 682//595 683//349 671//337
f 671//337 683//349 684//596 672//586
f 672//586 684//596 685//597 673//587
f 673//587 685//597 686//598 674//588
f 674//588 686//598 687//599 675//589
f 675//589 687//599 688//600 676//590
f 676//590 688//600 677//355 665//343
f 677//355 113//73 114//74 678//591
f 678//591 114//74 115//75 679//592
f 679//592 115//75 116//76 680//593
f 680//593 116//76 117//77 681//594
f 681//594 117//77 118//78 682//595
f 682//595 118//78 119//79 683//349
f 683//349 119//79 120//80 684//596
f 684//596 120//80 121//81 685//597
f 685//597 121//81 122//82 686//598
f 686//598 122//82 123//83 687//599
f 687//599 123//83 124//84 688//600
f 688//600 124//84 113//73 677//355
f 689//601 690//602 692//604 691//603
f 691//603 692//604 694//606 693//605
f 693//605 694//606 696//608 695//607
f 695//607 696//608 698//610 697//609
f 697//609 698//610 700//612 699//611
f 699//611 700//612 702//614 701//613
f 701//613 702//614 704//616 703//615
f 703//615 704//616 706//618 705//617
f 705//617 706//618 708//620 707//619
f 707//619 708//620 710//622 709//621
f 709//621 710//622 712//624 711//623
f 711//623 712//624 714//626 713//625
f 713//625 714//626 716//628 715//627
f 715//627 716//628 718//630 717//629
f 717//629 718//630 720//632 719//631
f 719//631 720//632 722//634 721//633
f 721//633 722//634 724//636 723//635
f 723//635 724//636 726//638 725//637
f 725//637 726//638 728//640 727//639
f 727//639 728//640 730//642 729//641
f 729//641 730//642 732//644 731//643
f 731//643 732//644 734//646 733//645
f 733//645 734//646 736//648 735//647
f 735//647 736//648 738//650 737//649
f 737//649 738//650 740//652 739//651
f 739//651 740//652 742//654 741//653
f 741//653 742//654 744//656 743//655
f 743//655 744//656 746//658 745//657
f 745//657 746//658 748//660 747//659
f 747//659 748//660 750//662 749//661
f 748//660 746//658 781//693 782//694
f 751//663 752//664 690//602 689//601
f 749//661 750//662 752//664 751//663
f 731//643 733//645 935//720 934//719
f 777//689 776//688 808//648 809//650
f 726//638 724//636 770//682 771//683
f 704//616 702//614 759//671 760//672
f 690//602 752//664 784//696 753//665
f 732//644 730//642 773//685 774//686
f 710//622 708//620 762//674 763//675
f 738//650 736//648 776//688 777//689
f 694//606 692//604 754//666 755//667
f 716//628 714//626 765//677 766//678
f 744//656 742//654 779//691 780//692
f 700//612 698//610 757//669 758//670
f 722//634 720//632 768//680 769//681
f 750//662 748//660 782//694 783//695
f 728//640 726//638 771//683 772//684
f 692//604 690//602 753//665 754//666
f 706//618 704//616 760//672 761//673
f 734//646 732//644 774//686 775//687
f 712//624 710//622 763//675 764//676
f 740//652 738//650 777//689 778//690
f 696//608 694//606 755//667 756//668
f 718//630 716//628 766//678 767//679
f 746//658 744//656 780//692 781//693
f 724//636 722//634 769//681 770//682
f 702//614 700//612 758//670 759//671
f 752//664 750//662 783//695 784//696
f 730//642 728//640 772//684 773//685
f 708//620 706//618 761//673 762//674
f 736//648 734//646 775//687 776//688
f 714//626 712//624 764//676 765//677
f 742//654 740//652 778//690 779//691
f 698//610 696//608 756//668 757//669
f 720//632 718//630 767//679 768//680
f 811//654 810//652 842//674 843//675
f 755//667 754//666 786//604 787//606
f 766//678 765//677 797//626 798//628
f 775//687 774//686 806//644 807//646
f 764//676 763//675 795//622 796//624
f 784//696 783//695 815//662 816//664
f 773//685 772//684 804//640 805//642
f 762//674 761//673 793//618 794//620
f 782//694 781//693 813//658 814//660
f 771//683 770//682 802//636 803//638
f 760//672 759//671 791//614 792//616
f 780//692 779//691 811//654 812//656
f 758//670 757//669 789//610 790//612
f 769//681 768//680 800//632 801//634
f 778//690 777//689 809//650 810//652
f 756//668 755//667 787//606 788//608
f 767//679 766//678 798//628 799//630
f 776//688 775//687 807//646 808//648
f 754//666 753//665 785//602 786//604
f 765//677 764//676 796//624 797//626
f 753//665 784//696 816//664 785//602
f 774//686 773//685 805//642 806//644
f 763//675 762//674 794//620 795//622
f 783//695 782//694 814//660 815//662
f 772//684 771//683 803//638 804//640
f 761//673 760//672 792//616 793//618
f 781//693 780//692 812//656 813//658
f 770//682 769//681 801//634 802//636
f 759//671 758//670 790//612 791//614
f 779//691 778//690 810//652 811//654
f 757//669 756//668 788//608 789//610
f 768//680 767//679 799//630 800//632
f 845//677 844//676 876//624 877//626
f 789//610 788//608 820//684 821//685
f 800//632 799//630 831//695 832//696
f 809//650 808//648 840//672 841//673
f 787//606 786//604 818//682 819//683
f 798//628 797//626 829//693 830//694
f 807//646 806//644 838//670 839//671
f 796//624 795//622 827//691 828//692
f 816//664 815//662 847//679 848//680
f 805//642 804//640 836//668 837//669
f 794//620 793//618 825//689 826//690
f 814//660 813//658 845//677 846//678
f 803//638 802//636 834//666 835//667
f 792//616 791//614 823//687 824//688
f 812//656 811//654 843//675 844//676
f 790//612 789//610 821//685 822//686
f 801//634 800//632 832//696 833//665
f 810//652 809//650 841//673 842//674
f 788//608 787//606 819//683 820//684
f 799//630 798//628 830//694 831//695
f 808//648 807//646 839//671 840//672
f 786//604 785//602 817//681 818//682
f 797//626 796//624 828//692 829//693
f 785//602 816//664 848//680 817//681
f 806//644 805//642 837//669 838//670
f 795//622 794//620 826//690 827//691
f 815//662 814//660 846//678 847//679
f 804//640 803//638 835//667 836//668
f 793//618 792//616 824//688 825//689
f 813//658 812//656 844//676 845//677
f 802//636 801//634 833//665 834//666
f 791//614 790//612 822//686 823//687
f 879//630 878//628 910//697 911//697
f 834//666 833//665 865//602 866//604
f 823//687 822//686 854//644 855//646
f 843//675 842//674 874//620 875//622
f 821//685 820//684 852//640 853//642
f 832//696 831//695 863//662 864//664
f 841//673 840//672 872//616 873//618
f 819//683 818//682 850//636 851//638
f 830//694 829//693 861//658 862//660
f 839//671 838//670 870//612 871//614
f 828//692 827//691 859//654 860//656
f 848//680 847//679 879//630 880//632
f 837//669 836//668 868//608 869//610
f 826//690 825//689 857//650 858//652
f 846//678 845//677 877//626 878//628
f 835//667 834//666 866//604 867//606
f 824//688 823//687 855//646 856//648
f 844//676 843//675 875//622 876//624
f 822//686 821//685 853//642 854//644
f 833//665 832//696 864//664 865//602
f 842//674 841//673 873//618 874//620
f 820//684 819//683 851//638 852//640
f 831//695 830//694 862//660 863//662
f 840//672 839//671 871//614 872//616
f 818//682 817//681 849//634 850//636
f 829//693 828//692 860//656 861//658
f 817//681 848//680 880//632 849//634
f 838//670 837//669 869//610 870//612
f 827//691 826//690 858//652 859//654
f 847//679 846//678 878//628 879//630
f 836//668 835//667 867//606 868//608
f 825//689 824//688 856//648 857//650
f 882//697 881//697 912//697 911//697 910//697 909//697 908//697 907//697 906//697 905//697 904//697 903//697 902//697 901//697 900//697 899//697 898//697 897//697 896//697 895//697 894//697 893//697 892//697 891//697 890//697 889//697 888//697 887//697 886//697 885//697 884//697 883//697
f 868//608 867//606 899//697 900//697
f 857//650 856//648 888//697 889//697
f 877//626 876//624 908//697 909//697
f 866//604 865//602 897//697 898//697
f 855//646 854//644 886//697 887//697
f 875//622 874//620 906//697 907//697
f 853//642 852//640 884//697 885//697
f 864//664 863//662 895//697 896//697
f 873//618 872//616 904//697 905//697
f 851//638 850//636 882//697 883//697
f 862//660 861//658 893//697 894//697
f 871//614 870//612 902//697 903//697
f 860//656 859//654 891//697 892//697
f 880//632 879//630 911//697 912//697
f 869//610 868//608 900//697 901//697
f 858//652 857//650 889//697 890//697
f 878//628 877//626 909//697 910//697
f 867//606 866//604 898//697 899//697
f 856//648 855//646 887//697 888//697
f 876//624 875//622 907//697 908//697
f 854//644 853//642 885//697 886//697
f 865//602 864//664 896//697 897//697
f 874//620 873//618 905//697 906//697
f 852//640 851//638 883//697 884//697
f 863//662 862//660 894//697 895//697
f 872//616 871//614 903//697 904//697
f 850//636 849//634 881//697 882//697
f 861//658 860//656 892//697 893//697
f 849//634 880//632 912//697 881//697
f 870//612 869//610 901//697 902//697
f 859//654 858//652 890//697 891//697
f 935//720 936//721 968//688 967//687
f 709//621 711//623 924//709 923//708
f 737//649 739//651 938//723 937//722
f 693//605 695//607 916//701 915//700
f 715//627 717//629 927//712 926//711
f 743//655 745//657 941//726 940//725
f 721//633 723//635 930//715 929//714
f 699//611 701//613 919//704 918//703
f 749//661 751//663 944//729 943//728
f 727//639 729//641 933//718 932//717
f 705//617 707//619 922//707 921//706
f 733//645 735//647 936//721 935//720
f 711//623 713//625 925//710 924//709
f 739//651 741//653 939//724 938//723
f 695//607 697//609 917//702 916//701
f 717//629 719//631 928//713 927//712
f 745//657 747//659 942//727 941//726
f 723//635 725//637 931//716 930//715
f 701//613 703//615 920//705 919//704
f 751//663 689//601 913//698 944//729
f 729//641 731//643 934//719 933//718
f 707//619 709//621 923//708 922//707
f 735//647 737//649 937//722 936//721
f 691//603 693//605 915//700 914//699
f 713//625 715//627 926//711 925//710
f 741//653 743//655 940//725 939//724
f 697//609 699//611 918//703 917//702
f 719//631 721//633 929//714 928//713
f 747//659 749//661 943//728 942//727
f 725//637 727//639 932//717 931//716
f 689//601 691//603 914//699 913//698
f 703//615 705//617 921//706 920//705
f 969//689 970//690 1002//697 1001//697
f 913//698 914//699 946//666 945//665
f 924//709 925//710 957//677 956//676
f 944//729 913//698 945//665 976//696
f 933//718 934//719 966//686 965//685
f 922//707 923//708 955//675 954//674
f 942//727 943//728 975//695 974//694
f 931//716 932//717 964//684 963//683
f 920//705 921//706 953//673 952//672
f 940//725 941//726 973//693 972//692
f 929//714 930//715 962//682 961//681
f 918//703 919//704 951//671 950//670
f 938//723 939//724 971//691 970//690
f 916//701 917//702 949//669 948//668
f 927//712 928//713 960//680 959//679
f 936//721 937//722 969//689 968//688
f 914//699 915//700 947//667 946//666
f 925//710 926//711 958//678 957//677
f 934//719 935//720 967//687 966//686
f 923//708 924//709 956//676 955//675
f 943//728 944//729 976//696 975//695
f 932//717 933//718 965//685 964//684
f 921//706 922//707 954//674 953//673
f 941//726 942//727 974//694 973//693
f 930//715 931//716 963//683 962//682
f 919//704 920//705 952//672 951//671
f 939//724 940//725 972//692 971//691
f 917//702 918//703 950//670 949//669
f 928//713 929//714 961//681 960//680
f 937//722 938//723 970//690 969//689
f 915//700 916//701 948//668 947//667
f 926//711 927//712 959//679 958//678
f 1003//697 1004//697 1036//656 1035//654
f 947//667 948//668 980//697 979//697
f 958//678 959//679 991//697 990//697
f 967//687 968//688 1000//697 999//697
f 945//665 946//666 978//697 977//697
f 956//676 957//677 989//697 988//697
f 976//696 945//665 977//697 1008//697
f 965//685 966//686 998//697 997//697
f 954//674 955//675 987//697 986//697
f 974//694 975//695 1007//697 1006//697
f 963//683 964//684 996//697 995//697
f 952//672 953//673 985//697 984//697
f 972//692 973//693 1005//697 1004//697
f 961//681 962//682 994//697 993//697
f 950//670 951//671 983//697 982//697
f 970//690 971//691 1003//697 1002//697
f 948//668 949//669 981//697 980//697
f 959//679 960//680 992//697 991//697
f 968//688 969//689 1001//697 1000//697
f 946//666 947//667 979//697 978//697
f 957//677 958//678 990//697 989//697
f 966//686 967//687 999//697 998//697
f 955//675 956//676 988//697 987//697
f 975//695 976//696 1008//697 1007//697
f 964//684 965//685 997//697 996//697
f 953//673 954//674 986//697 985//697
f 973//693 974//694 1006//697 1005//697
f 962//682 963//683 995//697 994//697
f 951//671 952//672 984//697 983//697
f 971//691 972//692 1004//697 1003//697
f 949//669 950//670 982//697 981//697
f 960//680 961//681 993//697 992//697
f 1037//658 1038//660 1070//659 1069//657
f 981//697 982//697 1014//612 1013//610
f 992//697 993//697 1025//634 1024//632
f 1001//697 1002//697 1034//652 1033//650
f 979//697 980//697 1012//608 1011//606
f 990//697 991//697 1023//630 1022//628
f 999//697 1000//697 1032//648 1031//646
f 977//697 978//697 1010//604 1009//602
f 988//697 989//697 1021//626 1020//624
f 1008//697 977//697 1009//602 1040//664
f 997//697 998//697 1030//644 1029//642
f 986//697 987//697 1019//622 1018//620
f 1006//697 1007//697 1039//662 1038//660
f 995//697 996//697 1028//640 1027//638
f 984//697 985//697 1017//618 1016//616
f 1004//697 1005//697 1037//658 1036//656
f 993//697 994//697 1026//636 1025//634
f 982//697 983//697 1015//614 1014//612
f 1002//697 1003//697 1035//654 1034//652
f 980//697 981//697 1013//610 1012//608
f 991//697 992//697 1024//632 1023//630
f 1000//697 1001//697 1033//650 1032//648
f 978//697 979//697 1011//606 1010//604
f 989//697 990//697 1022//628 1021//626
f 998//697 999//697 1031//646 1030//644
f 987//697 988//697 1020//624 1019//622
f 1007//697 1008//697 1040//664 1039//662
f 996//697 997//697 1029//642 1028//640
f 985//697 986//697 1018//620 1017//618
f 1005//697 1006//697 1038//660 1037//658
f 994//697 995//697 1027//638 1026//636
f 983//697 984//697 1016//616 1015//614
f 1026//636 1027//638 1059//637 1058//635
f 1015//614 1016//616 1048//615 1047//613
f 1035//654 1036//656 1068//655 1067//653
f 1013//610 1014//612 1046//611 1045//609
f 1024//632 1025//634 1057//633 1056//631
f 1033//650 1034//652 1066//651 1065//649
f 1011//606 1012//608 1044//607 1043//605
f 1022//628 1023//630 1055//629 1054//627
f 1031//646 1032//648 1064//647 1063//645
f 1009//602 1010//604 1042//603 1041//601
f 1020//624 1021//626 1053//625 1052//623
f 1040//664 1009//602 1041//601 1072//663
f 1029//642 1030//644 1062//643 1061//641
f 1018//620 1019//622 1051//621 1050//619
f 1038//660 1039//662 1071//661 1070//659
f 1027//638 1028//640 1060//639 1059//637
f 1016//616 1017//618 1049//617 1048//615
f 1036//656 1037//658 1069//657 1068//655
f 1025//634 1026//636 1058//635 1057//633
f 1014//612 1015//614 1047//613 1046//611
f 1034//652 1035//654 1067//653 1066//651
f 1012//608 1013//610 1045//609 1044//607
f 1023//630 1024//632 1056//631 1055//629
f 1032//648 1033//650 1065//649 1064//647
f 1010//604 1011//606 1043//605 1042//603
f 1021//626 1022//628 1054//627 1053//625
f 1030//644 1031//646 1063//645 1062//643
f 1019//622 1020//624 1052//623 1051//621
f 1039//662 1040//664 1072//663 1071//661
f 1028//640 1029//642 1061//641 1060//639
f 1017//618 1018//620 1050//619 1049//617
f 1068//655 1069//657 1101//726 1100//725
f 1057//633 1058//635 1090//715 1089//714
f 1046//611 1047//613 1079//704 1078//703
f 1066//651 1067//653 1099//724 1098//723
f 1044//607 1045//609 1077//702 1076//701
f 1055//629 1056//631 1088//713 1087//712
f 1064//647 1065//649 1097//722 1096//721
f 1042//603 1043//605 1075//700 1074//699
f 1053//625 1054//627 1086//711 1085//710
f 1062//643 1063//645 1095//720 1094//719
f 1051//621 1052//623 1084//709 1083//708
f 1071//661 1072//663 1104//729 1103//728
f 1060//639 1061//641 1093//718 1092//717
f 1049//617 1050//619 1082//707 1081//730
f 1069//657 1070//659 1102//727 1101//726
f 1058//635 1059//637 1091//731 1090//715
f 1047//613 1048//615 1080//705 1079//704
f 1067//653 1068//655 1100//725 1099//724
f 1045//609 1046//611 1078//703 1077//702
f 1056//631 1057//633 1089//714 1088//713
f 1065//649 1066//651 1098//723 1097//722
f 1043//605 1044//607 1076//701 1075//700
f 1054//627 1055//629 1087//712 1086//711
f 1063//645 1064//647 1096//721 1095//720
f 1041//601 1042//603 1074//699 1073//698
f 1052//623 1053//625 1085//710 1084//709
f 1072//663 1041//601 1073//698 1104//729
f 1061//641 1062//643 1094//719 1093//718
f 1050//619 1051//621 1083//708 1082//707
f 1070//659 1071//661 1103//728 1102//727
f 1059//637 1060//639 1092//717 1091//731
f 1048//615 1049//617 1081//730 1080//705
f 1102//727 1103//728 1135//253 1134//746
f 1091//731 1092//717 1124//741 1123//187
f 1080//705 1081//730 1113//73 1112//735
f 1100//725 1101//726 1133//289 1132//745
f 1089//714 1090//715 1122//740 1121//223
f 1078//703 1079//704 1111//109 1110//734
f 1098//723 1099//724 1131//325 1130//744
f 1076//701 1077//702 1109//145 1108//733
f 1087//712 1088//713 1120//739 1119//259
f 1096//721 1097//722 1129//79 1128//743
f 1074//699 1075//700 1107//181 1106//732
f 1085//710 1086//711 1118//738 1117//295
f 1094//719 1095//720 1127//115 1126//742
f 1083//708 1084//709 1116//737 1115//331
f 1103//728 1104//729 1136//747 1135//253
f 1092//717 1093//718 1125//151 1124//741
f 1081//730 1082//707 1114//736 1113//73
f 1101//726 1102//727 1134//746 1133//289
f 1090//715 1091//731 1123//187 1122//740
f 1079//704 1080//705 1112//735 1111//109
f 1099//724 1100//725 1132//745 1131//325
f 1077//702 1078//703 1110//734 1109//145
f 1088//713 1089//714 1121//223 1120//739
f 1097//722 1098//723 1130//744 1129//79
f 1075//700 1076//701 1108//733 1107//181
f 1086//711 1087//712 1119//259 1118//738
f 1095//720 1096//721 1128//743 1127//115
f 1073//698 1074//699 1106//732 1105//217
f 1084//709 1085//710 1117//295 1116//737
f 1104//729 1073//698 1105//217 1136//747
f 1093//718 1094//719 1126//742 1125//151
f 1082//707 1083//708 1115//331 1114//736
o =>FrW_C|B꿡湻wZg1x^S?ܖ	ỈoAH}@3e=`큭_>7qs[IX~8j2Q+PEu%xw|o"PTW?y5`ŗyUӳt;LZ?@@߶J	]-iTv綴1doTʆLc"=\LmkE|S)]
v 0.000000 0.000000 0.000000
